<?xml version="1.0" encoding="utf-8"?>
<!-- Generator: Adobe Illustrator 24.3.0, SVG Export Plug-In . SVG Version: 6.00 Build 0)  -->
<svg version="1.1" id="Ebene_1" xmlns="http://www.w3.org/2000/svg" xmlns:xlink="http://www.w3.org/1999/xlink" x="0px" y="0px"
	 viewBox="0 0 300 79.87" style="enable-background:new 0 0 300 79.87;" xml:space="preserve">
<style type="text/css">
	.st0{fill:#FFFFFF;}
</style>
<g>
	<path class="st0" d="M30.83,37.95l-2.31,1.91l0.2-1.45l0.2-1.91c0.07-0.46,0.13-0.99,0.13-1.52c0.13-1.58,0-3.3-0.26-5.02
		c-0.13-0.53-0.13-0.99-0.13-1.45c0.07-0.92-0.13-1.78-0.26-2.71l-0.2-0.86c-0.66-3.63-1.98-6.53-3.76-9.11
		c-0.99-1.39-1.85-2.44-2.9-3.1c-0.99-0.59-1.78-1.45-4.09-1.58h-0.73c-0.46,0.07-0.99,0.2-1.52,0.46c-0.86,0.4-1.58,0.99-2.18,1.78
		l-0.92,1.39c-0.66,0.92-1.19,1.91-1.72,2.97l-0.4,0.86c0,0.07-0.66,0.99-1.19,1.78l-0.2-1.06l-0.4-1.45
		c-0.13-0.66-0.33-1.25-0.4-1.85l-0.13-0.53c-0.13-1.12-0.26-2.24-0.79-3.17l-0.13-0.4c-0.2-0.46-0.4-0.86-0.66-1.06
		c-0.92-0.59-2.97-1.45-3.76-0.07c-0.26,0.46-0.59,1.91-0.53,2.51v1.52c0,0.79,0.07,1.52,0.13,2.24c0.07,1.78,0.13,3.56,0.26,5.34
		l0.33,3.23c0.26,1.45,0.53,2.84,0.66,4.29c0,0.53,0.07,1.06,0.13,1.58c0,0.53,0.07,1.06,0.13,1.58c0,0.4,0,0.73,0.07,1.06
		c0.07,0.66,0.13,1.39-0.07,2.11c-0.07,0.66-0.07,1.39,0.07,2.18c0.07,1.06,0.2,2.11,0.2,3.17c0,0.79-0.07,1.58-0.07,2.38
		c0,1.12-0.07,2.31,0,3.5c0,1.32,0.07,3.04,0.66,4.55l0.07,0.2L4.3,52.41v0.46L4.23,53c0.13,0,0.26,0,0.33,0.07H4.7
		c0.79,0,1.45-0.07,2.05-0.26c0.33-0.07,1.12-0.79,1.25-1.06l0.26-0.59c0.26-0.59,0.26-0.59,0.66-1.12l0.4-0.53l0.66-2.51v-0.13
		c0.26-0.59,0.2-0.92,0.2-1.39c0-0.33-0.07-0.73,0.07-1.32c0-0.4,0.13-0.73,0.2-1.06l0.26-1.52v-3.56l-0.13-5.21l-0.07-0.13
		c-0.07-1.12-0.07-2.31-0.2-3.37c-0.13-0.59-0.26-1.19-0.33-1.78l-0.33-1.65c0.73-1.19,1.65-2.84,1.65-2.9
		c0.4-0.99,0.99-1.91,1.39-2.9c0.59-1.45,2.57-7.06,5.08-7.39c1.19,0.2,1.91,1.25,2.38,2.71c0.79,2.57,0.86,6.33,0.92,8.71
		c0,0.59,0.07,1.06,0.07,1.39c0.13,1.06,0.13,2.18,0.2,3.3l0.2,3.23c0.13,1.06,0.13,2.18,0.13,3.23c0.07,0.53,0.07,1.06,0.07,1.58
		c0.13,0.66,0.13,1.25,0.07,1.98c-0.07,0.92-0.07,1.52-0.07,1.98c0,0.59,0,0.99-0.13,1.65c-0.07,0.53-0.59,0.73-0.99,0.86
		c-0.07,0.07-0.13,0.07-0.2,0.07c-0.79,0.46-1.39,1.06-2.05,1.65l-0.73,0.66c-1.06,0.86-2.05,1.78-2.71,3.04l-0.07,0.13
		c-0.4,0.86-0.73,1.52-0.53,2.31c0.07,0.2,0.07,0.46,0.07,0.66c0,1.19,0.33,2.11,0.99,2.9c0.66,0.79,1.12,1.19,1.98,1.19
		c0.59,0,1.12-0.13,1.78-0.2l0.2-0.07c1.45-0.26,2.57-1.12,3.5-2.57c0.46-0.73,0.86-1.32,1.32-1.91c0.26-0.33,0.53-0.73,0.73-1.19
		c0-0.13,0.07-0.2,0.13-0.33c0.2-0.59,0.4-1.12,0.86-1.65c0.33-0.46,0.53-1.06,0.66-1.65l0.2-0.4c0.59-1.91,0.86-2.38,1.19-3.76
		l0.07-0.2l0.07-0.07c0.26-0.26,0.86-1.32,1.19-1.52l0.07-0.13c0.2-0.13,0.79-0.86,0.99-1.06c1.25-1.12,0.33-0.59,1.06-1.32
		l0.26-0.66h-0.13C31.09,37.69,31.03,37.82,30.83,37.95z M20.34,47.06v0.13c-0.33,1.65-0.86,3.23-1.39,4.88
		c-0.26,0.66-0.92,1.25-1.58,1.25h-0.13c-0.73-0.13-1.25-1.12-1.25-1.58v-0.13c-0.07-0.46-0.07-0.99,0.13-1.52v-0.07
		c0.2-0.46,0.33-0.79,0.4-1.25v-0.07c0.4-0.59,0.86-1.06,1.32-1.45c0.73-0.66,0.86-0.92,1.58-1.25l0.33-0.13l0.33,0.26
		C20.4,46.47,20.4,46.86,20.34,47.06z"/>
	<path class="st0" d="M51.95,25.61c-0.07-0.2-0.26-0.4-0.4-0.53c-0.33-0.26-0.53-0.59-0.73-0.92c-0.33-0.4-0.66-0.59-1.19-0.79
		c-0.79-0.33-1.58-0.2-2.51,0c-1.06,0.13-1.78,0.79-2.51,1.65c-0.59,0.59-1.06,1.45-1.58,2.18c-0.79,1.06-1.39,2.24-1.98,3.37
		c-0.46,0.79-0.79,1.52-0.99,2.44c0,0.07-0.07,0.13-0.07,0.2c-0.07,0.13-0.13,0.26-0.26,0.26c-0.07,0-0.13-0.2-0.13-0.33
		c0-0.4-0.07-0.73-0.13-1.19c-0.13-1.12-0.4-2.24-0.92-3.3c-0.26-0.46-0.53-0.92-0.99-1.19c-0.07-0.07-0.2-0.13-0.26-0.26
		c-0.92-1.39-2.31-1.72-3.63-2.11h-0.13c-0.53,0.07-1.06-0.07-1.65,0.07c-0.4,0.07-0.66,0.4-0.92,0.66c-0.13,0.2-0.33,0.4-0.13,0.79
		c0,0,0.07,0,0,0.13c-0.26,0.4,0,0.66,0.13,0.99c0.53,1.45,0.79,2.97,1.12,4.49c0.46,2.31,0.66,4.55,1.06,6.86
		c0.26,1.98,0.46,4.09,0.79,6.07c0.2,1.45,0.33,2.97,0.46,4.42c0.07,0.66,0.33,1.19,0.86,1.52c0.07,0,0.13,0.07,0.2,0.13
		c0.53,0.26,1.06,0.73,1.72,0.59c0.33,0,0.53-0.13,0.79-0.2c0.33-0.13,0.53,0.33,0.79,0.2h0.07c0.4,0,0.86-0.33,1.12-0.79
		c0.4-0.79,0.66-1.65,0.86-2.57c0.07-0.33,0.2-0.66,0.13-0.99c-0.13-0.46-0.13-0.86-0.13-1.25c0-0.46,0.07-0.79,0.13-1.12
		c0-0.99,0.2-1.91,0.26-2.9l0.33-3.56c0.13-0.99,0.33-1.98,0.59-2.84c0.2-0.59,0.33-1.06,0.4-1.58c0.07-0.46,0.13-0.79,0.33-1.12
		c0.26-0.33,0.46-0.66,0.53-1.12c0.2-0.79,0.53-1.52,0.86-2.18c0.59-1.19,1.19-2.38,2.05-3.3c0.46-0.53,1.12-0.4,1.65-0.53
		c0.33,0.26,0.86,0.4,1.12,0.92c0.53,0.79,1.19,1.06,1.91,0.79C51.69,27.46,52.41,26.6,51.95,25.61z"/>
	<path class="st0" d="M143.03,30.69c-0.33,0.59-0.73,1.25-1.12,1.78c-0.33,0.46-0.73,0.79-1.12,1.19c-0.2,0.2-0.53,0.07-0.66,0.33
		c-0.53,0.86-0.86,1.06-1.32,1.91c-0.07,0.13-0.13,0.26-0.26,0.33c-0.4,0.26-1.12,1.98-1.39,2.31c-0.59,0.79-1.32,2.51-1.85,3.3
		c-0.92,1.25-2.05,3.3-2.51,2.9c-0.73-0.66-0.26-3.37-0.13-4.49c0.2-2.51,0.66-5.08,0.53-7.59l-0.2-3.63
		c-0.07-1.25-0.46-2.38-1.12-3.23c-1.32-1.72-4.36-1.85-6.14-0.92c-1.91,0.92-3.43,2.71-4.75,4.88c-1.06,1.85-2.05,3.76-2.64,6
		c-0.2,0.73-0.53,1.39-0.86,2.11c-0.13-0.2-0.07-0.33-0.07-0.46l-0.13-2.24c-0.2-2.05-0.46-4.09-0.73-6.07
		c-0.07-0.73-0.26-1.32-0.73-1.72l-1.52-1.45c-1.06-0.86-2.18-0.59-3.3-0.26c0,0-0.07,0.07-0.13,0.07c-1.06,0.79-1.91,1.78-2.64,3.1
		c-0.46,0.92-0.99,1.91-1.39,2.97c-0.13,0.46-0.33,0.86-0.73,1.32c0.07-0.53,0.07-0.92,0.07-1.25c0.07-1.12,0.2-2.18,0-3.23
		c0-0.13,0-0.26,0.07-0.4c0.13-0.4,0.07-0.79,0-1.19c-0.13-0.53-0.2-0.99-0.2-1.52c0-0.26-0.13-0.53-0.26-0.73
		c-0.59-1.25-1.58-1.65-2.77-1.85l-0.86-0.13c-1.32-0.13-1.39,6.6-1.52,7.59l-0.45,4.76c-0.13,0.18-0.26,0.38-0.41,0.66
		c-0.07,0.13-0.13,0.33-0.26,0.4c-0.4,0.2-1.06,1.52-1.32,1.91c-0.53,0.79-0.92,1.72-1.45,2.51c-0.66,0.99-4.95,7.92-4.49,3.3
		c0.2-1.91,0.26-3.89,0.4-5.81c0-1.25,0.07-2.51,0.4-3.76c0.4-1.52,0.4-3.04,0.66-4.55c0.07-0.26,0.07-0.46,0-0.66
		c-0.13-0.53-0.13-0.99,0.07-1.45c0-0.13,0.07-0.26-0.07-0.4c-0.4-0.73-0.86-1.25-1.72-1.52c-0.92-0.26-1.06-0.2-1.58,0.53
		c-0.33,0.33-0.46,0.86-0.86,1.19l-0.86-0.79c-1.19-1.19-2.71-1.45-4.22-1.65c-0.46-0.07-0.86-0.07-1.25-0.26
		c-1.06-0.79-2.18-0.53-3.17-0.07c-1.39,0.66-2.64,1.65-3.56,2.9c-1.78,2.24-3.17,4.69-3.76,7.59c-0.11,0.53-0.21,1.07-0.31,1.62
		c-0.77,1.21-2.05,3.75-2.2,4.06c-0.33,0.4-0.59,0.92-0.86,1.39v0.07c-0.2,0.4-0.4,0.73-0.66,1.06c-1.25,1.85-3.96,8.12-6.4,6.2
		c-1.06-0.86-1.65-2.05-1.98-3.37c-0.2-0.73-0.33-1.52-0.59-2.18c-0.73-1.91-0.92-3.96-1.52-5.94c-0.07-0.07-0.07-0.2-0.07-0.26
		c0-0.86,0.13-1.72-0.33-2.44v-0.26c0.13-0.79,0.2-1.65,0.2-2.51c0-0.33,0.2-0.59,0.59-0.73c0.4-0.07,0.73-0.2,0.99-0.33
		c1.12-0.46,2.05-1.19,3.1-1.65c0.66-0.26,1.19-0.79,1.65-1.32l0.66-0.73c1.65-1.52,2.11-4.36-0.2-6c-0.4-0.33-0.86-0.59-1.32-0.92
		c-0.13-0.07-0.33-0.13-0.53-0.07c-0.4,0-0.73-0.13-1.12-0.26c-1.39-0.33-2.71-0.4-4.03,0.13c-0.99,0.4-1.65,1.12-2.24,1.98
		c-2.84,4.29-3.5,10.03-3.7,15.11c-0.07,1.65,0.2,3.3,0.33,4.95c0.07,0.79,0.26,1.52,0.53,2.24c0.53,1.39,1.12,2.77,1.78,4.16
		c1.06,2.18,2.77,3.43,5.02,3.96c1.25,0.33,2.05,0.66,3.37,0.4c1.12-0.2,2.11-0.07,3.04-0.79c1.39-1.12,2.31-1.25,3.96-4.82
		l0.66-1.32c0.52-0.87,0.9-1.98,1.43-2.87c0.28,2.63,1.26,5.08,3.59,6.89c4.49,3.56,8.71-2.18,10.49-5.54
		c0.07-0.2,0.46-0.99,0.73-0.92c0.13,0.07,0.2,1.19,0.26,1.32c0.53,2.71,2.51,6.2,5.87,4.29c2.11-1.12,3.76-4.22,5.02-6.2l0.2-0.33
		c0.57-0.92,1.06-1.89,1.65-2.82c-0.01,0.17-0.03,0.34-0.06,0.51c-0.13,1.45-0.2,2.9-0.2,4.36c0,0.33,0,0.73-0.07,1.12
		c-0.2,1.25-0.07,2.38,0.46,3.43c0.79,1.45,2.44,0.13,3.3,1.32c0.26,0.33,0.73,0.26,0.92-0.2c0.07-0.2,0.13-0.4,0.13-0.66
		c0.13-0.59,0.2-1.25,0.4-1.91c0.26-1.19,0.59-2.31,0.92-3.43c0.33-1.32,0.59-2.64,1.06-3.96c0.13-0.46,0.26-0.99,0.33-1.45
		c0.13-0.53,0.26-0.99,0.46-1.45c0.33-0.73,0.66-1.39,0.66-2.31c0-0.2,0.13-0.4,0.2-0.59L109.1,33c0.53-1.45,0.73-2.05,1.65-3.17
		c0.33-0.4,0.59-0.79,1.06-0.99c0.2-0.07,0.33,0,0.4,0.26c0.13,0.4,0.13,0.79,0.13,1.19c0.13,2.44,0.2,4.82,0.26,7.26l0.2,5.41
		c0.07,1.19,0.13,2.38,0.13,3.63c0,0.59,0.07,1.32,0.59,1.58c0.07,0,0.13,0.13,0.2,0.2c0.33,0.59,1.12,0.53,1.72,0.59
		c0.13,0,0.26,0.13,0.33,0.2c0.46,0.33,0.79,0.2,0.86-0.46l0.4-1.06c0.2-0.26,0.33-0.59,0.46-0.92c0.73-1.91,1.19-3.83,1.85-5.74
		l0.53-1.72c0.46-1.06,0.92-2.24,1.25-3.43c0.2-0.59,0.79-1.65,1.06-2.24l0.92-2.11c0.92-1.72,1.78-2.9,3.17-3.63
		c0.86-0.4,1.45,0.66,1.52,1.85c0,0.86-0.13,1.72-0.2,2.64c-0.2,1.91-0.46,3.89-0.73,5.81h0.07c-0.4,2.05-0.2,3.7-0.13,5.68
		c0.07,2.64,1.06,5.35,4.16,5.48c3.37,0.13,4.42-2.31,5.48-3.96l0.2-0.33c0.59-0.92,1.85-3.04,2.51-4.55
		c0.4-0.92,0.73-1.45,1.19-2.38l0.73-1.52l1.19-2.24c0.46-0.92,0.26-1.52,0.92-2.31c0-0.07,0.13-0.46,0.2-0.53
		c0.07-0.2,0.26-0.79,0.13-0.86C143.29,30.43,143.16,30.56,143.03,30.69z M59.28,24.95c0.13-0.26,0.2-0.53,0.2-0.79
		c0-0.46,0.26-0.79,0.66-0.92c0.92-0.26,1.85-0.13,2.64,0.26c0.33,0.13,0.4,0.46,0.26,0.73l-0.53,0.73
		c-0.99,1.19-2.05,2.31-3.3,3.23c-0.2,0.13-0.46,0.4-0.86,0.33C58.62,27.26,58.75,26.07,59.28,24.95z M87.79,32.61
		c-0.07,0.99-0.2,2.05-0.4,2.9c-0.2,1.39-1.25,3.83-1.78,5.02c-0.26,0.59-0.53,1.12-0.86,1.65c-0.86,1.65-1.52,3.04-2.64,4.49
		c-1.32,1.72-3.5,2.05-4.09-0.46c-0.4-1.65,0.13-4.82,0.4-6.47c0.26-1.52,0.66-3.1,1.25-4.55c0.99-2.64,1.32-4.49,3.83-7
		c0.26-0.26,0.53-0.46,0.92-0.46C87.46,27.86,87.98,30.17,87.79,32.61z"/>
	<path class="st0" d="M170.61,41.19c-0.26-0.13-0.46,0.07-0.66,0.2c-0.07,0.07-0.13,0.07-0.13,0.13c-0.53,0.86-1.06,1.65-1.39,2.57
		c-0.73,1.98-1.98,3.83-3.1,5.74c-0.13,0.2-0.26,0.26-0.46,0.4c-0.13,0.13-0.33,0.2-0.46,0.4c-0.33,0.53-0.99,0.79-1.58,1.06
		c-0.46,0.26-0.92,0.26-1.39-0.07c-0.26-0.2-0.53-0.33-0.73-0.66c-0.59-0.86-1.12-1.85-1.25-2.97c-0.13-0.92-0.26-1.78-0.66-2.57
		c-0.33-0.79-0.53-1.58-0.53-2.38c-0.07-1.32-0.2-2.64-0.2-3.96c-0.07-2.24-0.26-4.49-0.26-6.8c0-1.72,0.2-3.5,0.4-5.21
		c0.2-1.32,0.46-2.51,0.79-3.76c0.33-1.52,0.66-3.1,1.39-4.49c0.46-0.79,0.79-1.52,0.99-2.38c0.26-0.99,0.79-1.85,1.52-2.57
		c0.4-0.4,0.86-0.53,1.25-0.2c0.46,0.4,0.86,0.86,0.92,1.45c0.07,0.59,0.07,1.19,0.26,1.78c0.33,1.52,0.2,3.04-0.2,4.55
		c-0.07,0.2-0.13,0.46-0.07,0.73c0,0.46,0.33,0.92,0.73,1.06c0.4,0.13,0.99-0.13,1.25-0.53c0.13-0.2,0.2-0.4,0.26-0.59
		c0.2-0.4,0.26-0.86,0.26-1.32c0.13-1.19,0.2-2.38,0.4-3.56c0.13-0.86,0-1.65-0.2-2.38c-0.07-0.26-0.2-0.59-0.2-0.79
		c-0.13-0.66-0.46-1.25-0.73-1.78c-0.13-0.2-0.33-0.53-0.59-0.73c-0.66-0.33-1.32-0.73-2.05-0.99c-1.52-0.46-3.56-0.13-4.95,0.59
		c-0.26,0.13-0.53,0.33-0.86,0.33c-0.79-0.13-1.25,0.26-1.72,0.73c-1.72,1.78-2.84,3.83-3.63,6c-0.46,1.25-0.73,2.44-1.12,3.63
		c-0.92,2.84-1.12,5.61-1.25,8.51c-0.07,1.65-0.07,3.23,0.07,4.88c0.13,1.78,0.13,3.56,0.33,5.41c0.2,2.11,0.73,4.22,1.19,6.33
		c0.26,1.32,0.99,2.51,1.65,3.7c0.66,1.12,1.52,2.05,2.71,2.77c2.51,1.65,4.95,1.58,7.66,0.13c0.53-0.26,0.86-0.66,1.32-0.92
		c1.65-1.06,2.51-2.51,3.1-4.16c0.53-1.32,1.12-2.64,1.39-4.03c0.2-0.86,0.4-1.72,0.79-2.44c0-0.13,0.07-0.2,0.07-0.33
		C170.94,41.45,170.88,41.25,170.61,41.19z"/>
	<path class="st0" d="M239.91,46.14c-0.26-0.59-0.4-1.25-0.59-1.91c-0.13-0.66-0.33-1.32-0.59-2.05c-0.13-0.46-0.4-0.99-0.59-1.45
		l-0.4-0.92c-0.4-0.59-0.86-1.12-1.32-1.65c-0.46-0.59-0.79-1.19-1.12-1.78c-0.46-0.86-1.06-1.58-1.39-2.44
		c-0.4-0.92-0.92-1.72-1.65-2.44c-0.86-0.86-1.32-1.91-1.91-2.9c-0.4-0.66-0.66-1.32-0.99-1.98c-0.26-0.46-0.33-0.99,0.13-1.45
		c0.07-0.07,0.13-0.2,0.13-0.33c0-0.33,0.2-0.33,0.46-0.33l0.79-0.2c0.73-0.26,1.52,0,2.05,0.4c0.66,0.59,1.12,1.32,1.45,2.18
		c0.33,0.66,0.73,1.39-0.13,2.11c-0.4,0.26-0.33,0.79-0.13,1.39c0.2,0.46,0.59,0.33,0.92,0.4c0.53,0,1.45-0.4,1.58-0.92
		c0.26-0.86,0.59-1.58,0.33-2.44c-0.2-0.92-0.59-1.78-1.25-2.51c-0.26-0.33-0.53-0.59-0.73-0.92c-0.13-0.2-0.33-0.46-0.59-0.59
		c-0.66-0.26-1.32-0.26-1.98-0.33c-0.46-0.07-0.86,0.07-1.25,0.07c-0.53-0.07-1.06,0-1.52,0.07c-1.32,0.4-2.38,0.99-3.1,2.05
		c-0.79,1.19-1.58,2.38-1.78,3.76c-0.13,0.66-0.33,1.32-0.13,1.91c0.13,0.73,0.26,1.45,0.46,2.18c0.2,0.86,0.4,1.72,0.86,2.57
		c0.11,0.23,0.24,0.45,0.36,0.67c-0.4,0.33-0.98,1.47-1.22,1.84c-0.53,0.79-0.92,1.72-1.45,2.51c-0.66,0.99-4.95,7.92-4.49,3.3
		c0.2-1.91,0.26-3.89,0.4-5.81c0-1.25,0.07-2.51,0.4-3.76c0.4-1.52,0.4-3.04,0.66-4.55c0.07-0.26,0.07-0.46,0-0.66
		c-0.13-0.53-0.13-0.99,0.07-1.45c0-0.13,0.07-0.26-0.07-0.4c-0.4-0.73-0.86-1.25-1.72-1.52c-0.92-0.26-1.06-0.2-1.58,0.53
		c-0.33,0.33-0.46,0.86-0.86,1.19l-0.86-0.79c-1.19-1.19-2.71-1.45-4.22-1.65c-0.46-0.07-0.86-0.07-1.25-0.26
		c-1.06-0.79-2.18-0.53-3.17-0.07c-1.39,0.66-2.64,1.65-3.56,2.9c-1.78,2.24-3.17,4.69-3.76,7.59c-0.02,0.12-0.05,0.25-0.07,0.37
		c-0.04,0.07-0.08,0.14-0.13,0.22c-0.07,0.13-0.13,0.33-0.26,0.4c-0.4,0.2-1.06,1.52-1.32,1.85c-1.45,2.11-2.57,4.29-4.29,6.2
		l-0.59,0.46c-0.4,0.33-0.66,0.26-0.86-0.2c-0.33-0.73-0.4-1.12-0.4-1.91c0-1.06,0.07-1.98,0.13-3.04c0.07-1.91,0.33-3.89,0.59-5.81
		c0.13-1.12,0.26-2.31,0.26-3.5c-0.07-1.39-0.13-2.71-0.92-3.89c-0.33-0.53-0.73-0.86-1.19-1.25c-1.32-1.12-2.84-1.12-4.42-0.59
		c-0.86,0.33-1.52,0.99-2.18,1.58c-1.39,1.12-2.24,2.57-3.17,4.09c-0.59,0.99-1.12,2.05-1.78,3.04c-0.07,0.13-0.13,0.33-0.33,0.26
		c-0.2-0.59-0.13-1.25-0.26-1.91c-0.13-0.59,0.07-1.06,0.33-1.58c0.66-1.32,1.39-2.64,1.85-4.09c0.33-0.92,0.73-1.85,1.06-2.84
		c0.13-0.4,0.33-0.79,0.53-1.12c0.4-0.66,0.66-1.39,0.86-2.11l0.53-1.65c0.53-1.32,0.99-2.57,1.32-3.96
		c0.26-1.12,0.66-2.24,0.92-3.37c0.79-3.63-0.4-8.64-4.88-8.51c-0.2,0-0.33,0.13-0.46,0.13c-0.59,0.2-1.06,0.59-1.65,0.79
		c-0.73,0.33-1.32,0.86-1.85,1.45c-1.32,1.52-1.98,3.37-2.84,5.15c-0.07,0.07-0.07,0.26-0.13,0.33c-0.33,1.25-0.66,2.44-1.06,3.63
		c-0.33,0.99-0.53,1.98-0.73,2.97c-0.33,1.85-0.4,3.76-0.59,5.68c-0.2,2.31-0.4,4.69-0.4,7.06c0,0.79,0.13,1.52,0.07,2.31
		c0,0.79,0.07,1.58,0.13,2.38c0.4,4.29,0.73,9.24,1.58,13.59c0,0.2,0.07,0.46,0.13,0.66c0.26,0.66,0.92,1.39,1.91,1.06
		c0.33-0.07,0.66-0.2,1.06,0c0.33,0.13,0.66-0.07,0.92-0.26c0.26-0.26,0.53-0.46,0.92-0.53c0.4-0.07,0.66-0.4,0.79-0.73
		c0.2-0.53,0.46-0.99,0.26-1.58c-0.13-0.26-0.07-0.59,0-0.86c0.2-1.39,0.13-2.77,0-4.16c-0.07-0.53-0.07-1.06,0.07-1.58
		c0.26-1.06,0.92-1.98,1.25-3.04c0.26-0.79,0.79-1.45,1.19-2.24c0.33-0.59,0.53-1.19,0.92-1.72c0.33-0.4,0.53-0.79,0.73-1.19
		c0.66-0.99,1.32-1.91,2.11-2.84c0.4-0.53,0.99-0.86,1.25-1.45l0.2-0.2c0.2-0.07,0.4-0.26,0.59-0.13s0.13,0.4,0.07,0.53
		c-0.07,0.73-0.2,1.39-0.33,2.04c-0.26,1.65-0.59,3.3-0.53,4.95c0,3.7-0.92,8.38,1.25,12.27c1.19,2.11,3.76,2.51,5.61,1.32
		c1.45-0.92,3.17-3.04,4.09-4.55l0.26-0.33c0.36-0.57,0.68-1.17,1.01-1.76c-0.09,3.46,0.7,6.82,3.67,9.15
		c4.49,3.56,8.71-2.18,10.49-5.54c0.07-0.2,0.46-0.99,0.73-0.92c0.13,0.07,0.2,1.19,0.26,1.32c0.53,2.71,2.51,6.2,5.87,4.29
		c2.11-1.12,3.76-4.22,5.02-6.2l0.2-0.33c0.66-1.06,1.19-2.18,1.91-3.23c0.31-0.44,0.56-0.9,0.81-1.37
		c0.39,0.59,0.78,1.18,1.17,1.77c0.66,1.06,1.45,1.98,1.98,3.1c0.46,1.06,1.06,2.05,1.32,3.23c0.07,0.33,0.2,0.73,0.46,1.12
		c0.13,0.2,0.13,0.4,0.07,0.66c-0.07,0.26-0.07,0.46,0,0.73c0.07,0.4,0,0.86-0.2,1.19l-0.26,0.79c-0.26,0.73-0.46,1.45-1.32,1.85
		c-0.53,0.2-0.99,0.53-1.58,0.59c-0.26,0-0.46-0.13-0.66-0.13c-0.46,0.13-0.86,0.07-1.25-0.13c-0.73-0.59-1.39-1.06-1.45-1.98
		c-0.07-0.59,0-1.19,0-1.72c0-0.26,0.07-0.46,0.33-0.53c0.59-0.33,0.73-0.79,0.79-1.32c0-0.13,0.07-0.2,0.13-0.26
		c0.26-0.33,0.66-0.66,1.06-0.92c0.26-0.2,0.53-0.4,0.59-0.66c0-0.2,0.07-0.26,0.2-0.33c0.26-0.2,0.4-0.46,0.66-0.59
		c0.07,0,0.2-0.07,0.13-0.2c0-0.07-0.13-0.13-0.2-0.13c-0.4,0-0.73-0.07-0.99,0.26c-0.07,0.2-0.26,0.26-0.46,0.26
		c-0.26-0.07-0.53,0.07-0.73,0.2c-0.4,0.26-0.66,0.59-1.06,0.86c-0.53,0.33-0.99,0.73-1.39,1.19c-0.4,0.46-0.53,0.99-0.79,1.52
		c-0.26,0.46-0.53,1.06-0.59,1.65c-0.2,0.92-0.2,1.91,0.33,2.71c0.33,0.59,0.79,1.19,1.25,1.72c0.07,0.2,0.33,0.26,0.53,0.26
		c0.26-0.07,0.46,0,0.66,0.13c0.2,0.26,0.4,0.46,0.73,0.53c0.59,0.2,1.25,0.26,1.91,0.2c0.2-0.07,0.46,0,0.59,0.13
		c0.13,0.07,0.26,0.07,0.4,0.07c0.46,0.07,0.86-0.07,1.25-0.07c0.59,0,1.06-0.13,1.58-0.33c0.26-0.13,0.59-0.26,0.92-0.33
		c0.66-0.07,1.19-0.53,1.85-0.59h0.07c0.66-0.26,1.06-0.73,1.45-1.12c0.33-0.26,0.73-0.46,0.92-0.79c0.2-0.59,0.73-1.12,0.92-1.72
		c0.2-0.53,0.46-1.06,0.59-1.65c0.07-0.79,0.53-1.58,0.4-2.38C240.05,47.06,240.05,46.53,239.91,46.14z M178.01,24.89v-1.65
		c0-0.79-0.13-1.58-0.07-2.38c0.13-1.52-0.07-3.1,0.2-4.69c0.4-2.11,0.59-4.22,1.12-6.27c0.26-1.12,0.53-2.24,1.25-3.17
		c0.07-0.13,0.2-0.33,0.2-0.46c0-0.4,0.26-0.59,0.53-0.79c1.45-1.25,2.11,2.9,2.05,3.7c0,2.64-1.52,5.61-2.31,8.18l-1.19,3.63
		c-0.46,1.25-0.99,2.44-1.58,3.63C178.2,24.69,178.14,24.69,178.01,24.89z M214.63,32.61c-0.07,0.99-0.2,2.05-0.4,2.9
		c-0.2,1.39-1.25,3.83-1.78,5.02c-0.26,0.59-0.53,1.12-0.86,1.65c-0.86,1.65-1.52,3.04-2.64,4.49c-1.32,1.72-3.5,2.05-4.09-0.46
		c-0.4-1.65,0.13-4.82,0.4-6.47c0.26-1.52,0.66-3.1,1.25-4.55c0.99-2.64,1.32-4.49,3.83-7c0.26-0.26,0.53-0.46,0.92-0.46
		C214.3,27.86,214.83,30.17,214.63,32.61z"/>
	<path class="st0" d="M282.28,25.61c-0.07-0.2-0.26-0.4-0.4-0.53c-0.33-0.26-0.53-0.59-0.73-0.92c-0.33-0.4-0.66-0.59-1.19-0.79
		c-0.79-0.33-1.58-0.2-2.51,0c-1.06,0.13-1.78,0.79-2.51,1.65c-0.59,0.59-1.06,1.45-1.58,2.18c-0.79,1.06-1.39,2.24-1.98,3.37
		c-0.46,0.79-0.79,1.52-0.99,2.44c0,0.07-0.07,0.13-0.07,0.2c-0.07,0.13-0.13,0.26-0.26,0.26c-0.07,0-0.13-0.2-0.13-0.33
		c0-0.4-0.07-0.73-0.13-1.19c-0.13-1.12-0.4-2.24-0.92-3.3c-0.26-0.46-0.53-0.92-0.99-1.19c-0.07-0.07-0.2-0.13-0.26-0.26
		c-0.92-1.39-2.31-1.72-3.63-2.11h-0.13c-0.53,0.07-1.06-0.07-1.65,0.07c-0.4,0.07-0.66,0.4-0.92,0.66c-0.13,0.2-0.33,0.4-0.13,0.79
		c0,0,0.07,0,0,0.13c-0.26,0.4,0,0.66,0.13,0.99c0.53,1.45,0.79,2.97,1.12,4.49c0.22,1.1,0.38,2.19,0.53,3.28
		c-0.07,0.1-0.13,0.22-0.2,0.35c-0.07,0.13-0.13,0.33-0.26,0.4c-0.46,0.2-2.51,4.29-2.71,4.69c-0.33,0.4-0.59,0.92-0.86,1.39v0.07
		c-0.2,0.4-0.4,0.73-0.66,1.06c-1.25,1.85-3.96,8.12-6.4,6.2c-1.06-0.86-1.65-2.05-1.98-3.37c-0.2-0.73-0.33-1.52-0.59-2.18
		c-0.73-1.91-0.92-3.96-1.52-5.94c-0.07-0.07-0.07-0.2-0.07-0.26c0-0.86,0.13-1.72-0.33-2.44v-0.26c0.13-0.79,0.2-1.65,0.2-2.51
		c0-0.33,0.2-0.59,0.59-0.73c0.4-0.07,0.73-0.2,0.99-0.33c1.12-0.46,2.05-1.19,3.1-1.65c0.66-0.26,1.19-0.79,1.65-1.32l0.66-0.73
		c1.65-1.52,2.11-4.36-0.2-6c-0.4-0.33-0.86-0.59-1.32-0.92c-0.13-0.07-0.33-0.13-0.53-0.07c-0.4,0-0.73-0.13-1.12-0.26
		c-1.39-0.33-2.71-0.4-4.03,0.13c-0.99,0.4-1.65,1.12-2.24,1.98c-2.84,4.29-3.5,10.03-3.7,15.11c-0.07,1.65,0.2,3.3,0.33,4.95
		c0.07,0.79,0.26,1.52,0.53,2.24c0.53,1.39,1.12,2.77,1.78,4.16c1.06,2.18,2.77,3.43,5.02,3.96c1.25,0.33,2.05,0.66,3.37,0.4
		c1.12-0.2,2.11-0.07,3.04-0.79c1.39-1.12,2.31-1.25,3.96-4.82l0.66-1.32c0.59-0.99,0.99-2.31,1.65-3.23
		c0.37-0.53,1.13-2.35,1.77-3.9c0.24,1.85,0.43,3.78,0.74,5.61c0.2,1.45,0.33,2.97,0.46,4.42c0.07,0.66,0.33,1.19,0.86,1.52
		c0.07,0,0.13,0.07,0.2,0.13c0.53,0.26,1.06,0.73,1.72,0.59c0.33,0,0.53-0.13,0.79-0.2c0.33-0.13,0.53,0.33,0.79,0.2h0.07
		c0.4,0,0.86-0.33,1.12-0.79c0.4-0.79,0.66-1.65,0.86-2.57c0.07-0.33,0.2-0.66,0.13-0.99c-0.13-0.46-0.13-0.86-0.13-1.25
		c0-0.46,0.07-0.79,0.13-1.12c0-0.99,0.2-1.91,0.26-2.9l0.33-3.56c0.13-0.99,0.33-1.98,0.59-2.84c0.2-0.59,0.33-1.06,0.4-1.58
		c0.07-0.46,0.13-0.79,0.33-1.12c0.26-0.33,0.46-0.66,0.53-1.12c0.2-0.79,0.53-1.52,0.86-2.18c0.59-1.19,1.19-2.38,2.04-3.3
		c0.46-0.53,1.12-0.4,1.65-0.53c0.33,0.26,0.86,0.4,1.12,0.92c0.53,0.79,1.19,1.06,1.91,0.79C282.02,27.46,282.74,26.6,282.28,25.61
		z M248.82,24.95c0.13-0.26,0.2-0.53,0.2-0.79c0-0.46,0.26-0.79,0.66-0.92c0.92-0.26,1.85-0.13,2.64,0.26
		c0.33,0.13,0.4,0.46,0.26,0.73l-0.53,0.73c-0.99,1.19-2.05,2.31-3.3,3.23c-0.2,0.13-0.46,0.4-0.86,0.33
		C248.16,27.26,248.3,26.07,248.82,24.95z"/>
	<path class="st0" d="M297.99,47.52c0-0.46,0-0.99-0.13-1.39c-0.26-0.59-0.4-1.25-0.59-1.91c-0.13-0.66-0.33-1.32-0.59-2.05
		c-0.13-0.46-0.4-0.99-0.59-1.45l-0.4-0.92c-0.4-0.59-0.86-1.12-1.32-1.65c-0.46-0.59-0.79-1.19-1.12-1.78
		c-0.46-0.86-1.06-1.58-1.39-2.44c-0.4-0.92-0.92-1.72-1.65-2.44c-0.86-0.86-1.32-1.91-1.91-2.9c-0.4-0.66-0.66-1.32-0.99-1.98
		c-0.26-0.46-0.33-0.99,0.13-1.45c0.07-0.07,0.13-0.2,0.13-0.33c0-0.33,0.2-0.33,0.46-0.33l0.79-0.2c0.73-0.26,1.52,0,2.05,0.4
		c0.66,0.59,1.12,1.32,1.45,2.18c0.33,0.66,0.73,1.39-0.13,2.11c-0.4,0.26-0.33,0.79-0.13,1.39c0.2,0.46,0.59,0.33,0.92,0.4
		c0.53,0,1.45-0.4,1.58-0.92c0.26-0.86,0.59-1.58,0.33-2.44c-0.2-0.92-0.59-1.78-1.25-2.51c-0.26-0.33-0.53-0.59-0.73-0.92
		c-0.13-0.2-0.33-0.46-0.59-0.59c-0.66-0.26-1.32-0.26-1.98-0.33c-0.46-0.07-0.86,0.07-1.25,0.07c-0.53-0.07-1.06,0-1.52,0.07
		c-1.32,0.4-2.38,0.99-3.1,2.05c-0.79,1.19-1.58,2.38-1.78,3.76c-0.13,0.66-0.33,1.32-0.13,1.91c0.13,0.73,0.26,1.45,0.46,2.18
		c0.2,0.86,0.4,1.72,0.86,2.57c0.86,1.72,1.91,3.23,2.97,4.82c0.66,1.06,1.45,1.98,1.98,3.1c0.46,1.06,1.06,2.05,1.32,3.23
		c0.07,0.33,0.2,0.73,0.46,1.12c0.13,0.2,0.13,0.4,0.07,0.66c-0.07,0.26-0.07,0.46,0,0.73c0.07,0.4,0,0.86-0.2,1.19l-0.26,0.79
		c-0.26,0.73-0.46,1.45-1.32,1.85c-0.53,0.2-0.99,0.53-1.58,0.59c-0.26,0-0.46-0.13-0.66-0.13c-0.46,0.13-0.86,0.07-1.25-0.13
		c-0.73-0.59-1.39-1.06-1.45-1.98c-0.07-0.59,0-1.19,0-1.72c0-0.26,0.07-0.46,0.33-0.53c0.59-0.33,0.73-0.79,0.79-1.32
		c0-0.13,0.07-0.2,0.13-0.26c0.26-0.33,0.66-0.66,1.06-0.92c0.26-0.2,0.53-0.4,0.59-0.66c0-0.2,0.07-0.26,0.2-0.33
		c0.26-0.2,0.4-0.46,0.66-0.59c0.07,0,0.2-0.07,0.13-0.2c0-0.07-0.13-0.13-0.2-0.13c-0.4,0-0.73-0.07-0.99,0.26
		c-0.07,0.2-0.26,0.26-0.46,0.26c-0.26-0.07-0.53,0.07-0.73,0.2c-0.4,0.26-0.66,0.59-1.06,0.86c-0.53,0.33-0.99,0.73-1.39,1.19
		c-0.4,0.46-0.53,0.99-0.79,1.52c-0.26,0.46-0.53,1.06-0.59,1.65c-0.2,0.92-0.2,1.91,0.33,2.71c0.33,0.59,0.79,1.19,1.25,1.72
		c0.07,0.2,0.33,0.26,0.53,0.26c0.26-0.07,0.46,0,0.66,0.13c0.2,0.26,0.4,0.46,0.73,0.53c0.59,0.2,1.25,0.26,1.91,0.2
		c0.2-0.07,0.46,0,0.59,0.13c0.13,0.07,0.26,0.07,0.4,0.07c0.46,0.07,0.86-0.07,1.25-0.07c0.59,0,1.06-0.13,1.58-0.33
		c0.26-0.13,0.59-0.26,0.92-0.33c0.66-0.07,1.19-0.53,1.85-0.59h0.07c0.66-0.26,1.06-0.73,1.45-1.12c0.33-0.26,0.73-0.46,0.92-0.79
		c0.2-0.59,0.73-1.12,0.92-1.72c0.2-0.53,0.46-1.06,0.59-1.65C297.66,49.11,298.12,48.31,297.99,47.52z"/>
</g>
<g>
	<path class="st0" d="M40.07,79.65V66.77h4.86c0.86,0,1.51,0.04,1.96,0.12c0.63,0.11,1.16,0.31,1.59,0.6s0.77,0.71,1.03,1.24
		s0.39,1.12,0.39,1.76c0,1.1-0.35,2.02-1.05,2.78s-1.96,1.14-3.78,1.14h-3.3v5.24H40.07z M41.78,72.89h3.33
		c1.1,0,1.88-0.21,2.35-0.62s0.69-0.99,0.69-1.73c0-0.54-0.14-1-0.41-1.38s-0.63-0.64-1.08-0.76c-0.29-0.08-0.82-0.11-1.59-0.11
		h-3.3V72.89z"/>
	<path class="st0" d="M73.13,66.77h1.71v7.44c0,1.29-0.15,2.32-0.44,3.08s-0.82,1.38-1.59,1.86s-1.77,0.72-3.01,0.72
		c-1.21,0-2.19-0.21-2.96-0.62s-1.32-1.02-1.64-1.81s-0.49-1.87-0.49-3.23v-7.44h1.71v7.44c0,1.12,0.1,1.94,0.31,2.47
		s0.57,0.94,1.07,1.23s1.13,0.43,1.86,0.43c1.25,0,2.15-0.28,2.68-0.85s0.8-1.66,0.8-3.28V66.77z"/>
	<path class="st0" d="M90.21,79.65V66.77h4.83c0.98,0,1.77,0.13,2.37,0.39c0.59,0.26,1.06,0.66,1.4,1.2s0.51,1.11,0.51,1.7
		c0,0.55-0.15,1.07-0.45,1.56s-0.75,0.88-1.35,1.18c0.78,0.23,1.38,0.62,1.8,1.17c0.42,0.55,0.63,1.2,0.63,1.95
		c0,0.6-0.13,1.17-0.38,1.68c-0.26,0.52-0.57,0.92-0.95,1.2s-0.85,0.49-1.41,0.64c-0.57,0.14-1.26,0.21-2.08,0.21H90.21z
		 M91.91,72.18h2.79c0.76,0,1.3-0.05,1.63-0.15c0.43-0.13,0.76-0.34,0.98-0.64c0.22-0.3,0.33-0.67,0.33-1.12
		c0-0.43-0.1-0.8-0.31-1.13s-0.5-0.55-0.88-0.67s-1.03-0.18-1.96-0.18h-2.58V72.18z M91.91,78.13h3.21c0.55,0,0.94-0.02,1.16-0.06
		c0.39-0.07,0.72-0.19,0.98-0.35s0.48-0.4,0.65-0.72s0.25-0.68,0.25-1.09c0-0.48-0.12-0.9-0.37-1.25s-0.59-0.6-1.02-0.75
		c-0.44-0.14-1.07-0.22-1.89-0.22h-2.98V78.13z"/>
	<path class="st0" d="M114.81,79.65V66.77h1.71v11.36h6.35v1.52H114.81z"/>
	<path class="st0" d="M137.79,79.65V66.77h1.71v12.88H137.79z"/>
	<path class="st0" d="M154.52,75.51l1.61-0.14c0.08,0.64,0.25,1.17,0.53,1.59c0.28,0.41,0.71,0.75,1.3,1s1.25,0.38,1.98,0.38
		c0.65,0,1.22-0.1,1.72-0.29s0.87-0.46,1.11-0.79s0.37-0.71,0.37-1.1c0-0.4-0.12-0.76-0.35-1.06s-0.62-0.56-1.16-0.76
		c-0.35-0.13-1.11-0.34-2.29-0.63s-2.01-0.55-2.49-0.8c-0.62-0.32-1.07-0.72-1.38-1.2c-0.3-0.48-0.45-1.01-0.45-1.6
		c0-0.65,0.18-1.26,0.55-1.82s0.91-0.99,1.62-1.29s1.5-0.44,2.36-0.44c0.96,0,1.8,0.15,2.53,0.46c0.73,0.31,1.29,0.76,1.68,1.36
		s0.6,1.27,0.63,2.03l-1.63,0.12c-0.09-0.81-0.39-1.43-0.89-1.85c-0.51-0.42-1.26-0.62-2.25-0.62c-1.03,0-1.78,0.19-2.25,0.57
		c-0.47,0.38-0.71,0.83-0.71,1.37c0,0.46,0.17,0.84,0.5,1.14c0.33,0.3,1.18,0.6,2.57,0.92s2.34,0.59,2.85,0.82
		c0.75,0.35,1.3,0.78,1.66,1.31s0.54,1.14,0.54,1.83c0,0.69-0.2,1.33-0.59,1.94s-0.96,1.08-1.69,1.42c-0.74,0.34-1.56,0.5-2.48,0.5
		c-1.17,0-2.14-0.17-2.93-0.51c-0.79-0.34-1.41-0.85-1.86-1.53C154.78,77.14,154.54,76.37,154.52,75.51z"/>
	<path class="st0" d="M179.75,79.65V66.77h1.71v5.29h6.7v-5.29h1.71v12.88h-1.71v-6.07h-6.7v6.07H179.75z"/>
	<path class="st0" d="M205.59,79.65V66.77h1.71v12.88H205.59z"/>
	<path class="st0" d="M222.88,79.65V66.77h1.75l6.77,10.12V66.77h1.63v12.88h-1.75l-6.77-10.12v10.12H222.88z"/>
	<path class="st0" d="M254.53,74.6v-1.51l5.46-0.01v4.78c-0.84,0.67-1.7,1.17-2.59,1.51s-1.8,0.5-2.74,0.5
		c-1.27,0-2.42-0.27-3.45-0.81c-1.04-0.54-1.82-1.33-2.34-2.35s-0.79-2.17-0.79-3.44c0-1.25,0.26-2.42,0.79-3.51
		s1.28-1.89,2.26-2.42s2.12-0.79,3.4-0.79c0.93,0,1.77,0.15,2.53,0.45s1.34,0.72,1.77,1.26s0.75,1.24,0.98,2.11l-1.54,0.42
		c-0.19-0.66-0.43-1.17-0.72-1.55s-0.7-0.68-1.23-0.9c-0.53-0.23-1.12-0.34-1.78-0.34c-0.78,0-1.45,0.12-2.02,0.36
		s-1.03,0.55-1.38,0.94c-0.35,0.39-0.62,0.81-0.81,1.27c-0.33,0.8-0.49,1.66-0.49,2.59c0,1.15,0.2,2.11,0.59,2.88
		c0.4,0.77,0.97,1.35,1.73,1.72s1.56,0.56,2.41,0.56c0.74,0,1.46-0.14,2.16-0.43s1.24-0.59,1.6-0.91v-2.4H254.53z"/>
</g>
</svg>
