<?xml version="1.0" encoding="utf-8"?>
<!-- Generator: Adobe Illustrator 24.3.0, SVG Export Plug-In . SVG Version: 6.00 Build 0)  -->
<svg version="1.1" id="Ebene_1" xmlns="http://www.w3.org/2000/svg" xmlns:xlink="http://www.w3.org/1999/xlink" x="0px" y="0px"
	 viewBox="0 0 500 399" style="enable-background:new 0 0 500 399;" xml:space="preserve">
<style type="text/css">
	.st0{fill:#FFFFFF;}
</style>
<g>
	<path class="st0" d="M116.3,212.7c1.3-2.6,2.9-5.2,4.5-7.7c2.9-4.2,3.5-11,4.5-15.8c0-2.9,1-4.8,0-6.4c0-3.2,0.6-6.1,0-10.6
		c-1-7.7-1.3-12.6-2.9-20.3l-0.6-1.9c-1.6-7.4-2.9-11.6-6.1-18.4l-5.5-11c-2.9-6.4-5.8-12.6-9.3-18.7c-3.9-7.1-7.1-14.5-11.9-20.9
		l-1-1.6c-0.3-0.6-0.3-1.6,0-1.9c3.2-2.6,4.2-6.8,6.8-9.7c2.9-2.9,5.5-8.7,6.4-12.6c0-1,2.3-4.2,2.3-5.2c2.3-6.8,2.3-5.5,2.6-12.9
		v-4.2c-0.6-7.1-1.6-11-2.6-13.2C99.8,12.3,96,5.5,79.2,6.2C65.4,6.8,56,9.4,48.9,26.5c-1,2.3-1.3,4.5-1.6,6.8
		c-1,6.1-1.6,8.1-1.3,15.8c0,2.3,1,7.4,1,10c0.6,6.4,2.6,12.6,3.9,19c0.6,3.5,2.9,6.1-0.6,6.4c-1,0.3-4.2,0-5.2,0.3
		c-1.6,0.3-3.9,0-5.5,0c-5.5-0.3-6.8-0.3-11.6-2.9c-1.6-1-5.2-6.1-5.8-8.1c-1.9-7.1-2.6-11-3.2-16.8c0-2.6,0.3-5.2-1.6-7.1
		c-1.9-2.2-5.5-2.2-7.4,0.3c-1.3,1.3-2.3,2.9-2.9,4.8c-1.6,6.4-0.7,9.7,0.3,16.1c0.6,3.9,2.9,10.3,4.8,13.2l3.2,4.2
		c7.7,8.4,14.8,9,23.5,9.7c3.9,0.3,6.1-0.3,12.6-0.3c2.9,0,7.4-1.6,8.7,1c0.3,1.3,2.3,4.8,2.9,5.8c2.3,5.5,3.5,6.8,5.5,12.2
		c3.5,9.3,4.8,10.3,7.4,17.4c1.9,5.1,4.5,11.3,7.4,19.3l2.9,8.4c2.6,9,2.9,15.1,4.2,24.8c1,6.4,0,11.6-0.6,17.7
		c-0.3,2.6,0,3.9-2.6,9.3c-0.3,1-2.3,3.2-3.9,4.2c-3.2,1.9-6.4,1.6-10,1.9c-4.2,0-8.4-1-12.6-2.3c-6.1-2.2-10-6.4-11.9-12.6
		c-0.6-2.6-1.6-5.2-2.9-7.7c-2.3-4.2-2.6-8.7-0.7-13.2c0.7-1,1-1.9,0.7-2.9c-0.3-2.6,0.3-4.5,1.6-6.8c1.6-2.6,1.6-2.9,4.5-2.3
		c1.6,0.3,2.9,0.3,4.5-0.3c2.6-1.3,3.2-3.2,1.9-5.8c-1.9-3.2-8.4-4.5-11.3-2.2c-2.9,2.2-4.8,4.8-7.1,7.4c-6.1,6.1-7.7,14.2-7.7,22.2
		c0,5.1,1.3,10.3,3.2,15.1c1,3.5,2.6,6.4,5.8,8.4c2.3,1.6,3.9,3.5,5.8,5.1c4.2,3.2,8.4,6.4,13.5,8.4c12.2,4.2,24.5,3.5,36.1-2.6
		c0.7,0,1.3-0.6,1.9-0.6c2.9,0,4.8-1.6,7.1-3.2C110.5,220.1,113.4,218.2,116.3,212.7z M83.4,60.6l-1,1c-1.9,1.6-2.3,1.6-3.5-0.6
		c-4.5-7.7-5.5-16.4-2.9-25.1c1.3-4.8,3.2-9.7,7.4-13.2c2.9-2.3,6.4-1.6,8.1,1.9c1.3,2.3,1.9,4.8,1.6,7.4c-0.3,1-0.3,1.9-0.3,2.6
		c0,3.5-0.3,6.8-1,9.7C90.5,50.6,86.6,55.5,83.4,60.6z"/>
	<path class="st0" d="M196.5,173.7c3-4.8,5.4-9.8,8.6-14.6c-0.1,0.6-0.1,1.1-0.2,1.7c-1.6,9.7-2.9,19.7-2.6,29.3
		c0,2.6,0.3,4.8,2.3,6.4c4.2,2.9,6.8,7.7,11.9,10c0.6-1,0.3-2.9,2.3-2.6c2.6,0.6,7.1,0.3,8.7-1c1-0.6,1.6-1.9,2.6-2.6
		c2.3-1.6,3.2-3.5,3.5-6.1c0-1.3,0.3-2.2,0.6-3.2c1.6-8.4,3.2-16.4,3.9-24.8c0.3-3.5,0.3-7.4,1.3-11.3c1.6-5.8,1.9-11.6,2.6-17.4
		c0.3-3.2-0.3-6.4,1-9.3c2.9-5.8,4.5-11.6,8.1-17.1c4.2-6.4,7.7-13.5,13.9-18.7c1.3-1,2.3-1.9,3.5-2.6c5.1-2.6,6.1-1.9,6.8,3.9
		c1.3,8.4,0.6,17.1,0.6,25.4c0,7.1,0,14.2-0.3,21.3c-0.3,1.6-0.3,3.2-0.3,4.8c0,3.5,0.3,7.4,0.6,11c0.6,8.1,1,16.4,3.2,24.5
		c1.9,8.1,4.2,15.5,11.9,19.3c12.6,5.8,22.2-2.2,30.6-14.8c5.5-8.1,7.7-10.9,13.2-22.9c0.6-1.1,1-2.1,1.4-3.1
		c2.9,22,10.8,44.4,31.4,40.8c12.6-2.2,19.7-16.8,25.8-26.4c3.2-5.1,5.8-10.6,9.3-15.8c2.9-4.2,4.8-8.7,7.4-13.2
		c0.6-1.3,1.6-2.6,2.2-4.2c3.9-6.1,3.9-7.1,5.8-11c2.3-4.2,1.6-7.4,4.5-11.3c0-0.3,0.6-2.3,1-2.3c0.3-1,1.6-3.9,0.6-4.5
		c-1-0.6-1.6-0.3-2.3,0.6c-1.6,2.6-3.2,6.1-5.5,8.4c-1.3,2.3-3.2,4.2-5.1,5.8c-1.3,1-2.9,0.3-3.5,1.9c-2.6,3.9-4.2,4.8-6.4,9
		c-0.3,0.6-0.6,1.6-1.3,1.9c-1.9,1-5.1,7.4-6.4,9.3c-3.9,5.8-17.4,32.2-23.2,29.6c-4.8-1.9-4.5-18.7-4.8-23.2
		c-0.6-7.4,0-14.5-1.6-21.9c-0.6-2.3-0.3-4.5-0.3-6.8l1.3-20.9c0-2.3,0.3-4.2,0.3-6.4c-0.3-2.6-1.6-4.5-4.2-5.8
		c-2.9-1.9-5.8-2.6-8.7-3.5c-2.6-0.6-4.8-1.9-7.1,0c-0.3,0.3-1,0.3-1.6,0c-2.9-0.3-4.2,1.3-5.2,3.2c-1.6,3.2-2.6,6.4-2.9,10.3
		c-1,7.1-0.6,14.8-1,22.2c-0.1,3.1-0.2,7.3-0.1,12.1c-0.3,0.6-0.6,1.1-1.2,1.4c-1.9,1.3-5.2,7.7-6.4,9.3c-2.9,3.9-4.5,8.4-7.1,12.6
		c-3.5,5.1-9,19-14.8,12.6c-3.9-4.5-1.6-16.4-1.6-21.3c0.3-2.6-0.6-4.8-0.3-7.4v-1c0.3-3.2,0-6.4-0.3-9.7
		c-0.3-5.1-0.6-10.6-0.3-15.8c0.6-6.4,1.3-12.6-0.6-18.7c-3.2-11-9.7-18.7-20.9-21.9c-9.7-2.6-18.4-0.6-25.8,6.1
		c-4.2,3.5-6.8,8.4-11,11.9c-1.3-0.6-1.6-1.6-1.9-2.6c-1-1.9-2.3-3.5-3.9-4.5c-3.2-1.9-5.5-4.8-7.7-7.7
		c-12.9-15.8-19.6,19.7-20,27.7c-0.3,3.9-0.6,7.7-1.3,11.6c-0.6,4.2-1.2,8.4-1.8,12.6c-1,1.2-1.9,2.5-3,4.5
		c-0.3,0.6-0.6,1.6-1.3,1.9c-1.9,1-5.2,7.4-6.4,9.3c-3.9,5.8-17.4,32.2-23.2,29.6c-4.8-1.9-4.5-18.7-4.8-23.2
		c-0.6-7.4,0-14.5-1.6-21.9c-0.6-2.3-0.3-4.5-0.3-6.8l1.3-20.9c0-2.3,0.3-4.2,0.3-6.4c-0.3-2.6-1.6-4.5-4.2-5.8
		c-2.9-1.9-5.8-2.6-8.7-3.5c-2.6-0.6-4.8-1.9-7.1,0c-0.3,0.3-1,0.3-1.6,0c-2.9-0.3-4.2,1.3-5.2,3.2c-1.6,3.2-2.6,6.4-2.9,10.3
		c-1,7.1-0.6,14.8-1,22.2c-0.6,19-0.3,80.6,32.9,74.8C183.3,197.9,190.4,183.4,196.5,173.7z"/>
	<path class="st0" d="M148.8,70.6c1.6,1.9,3.5,3.5,5.8,4.8c7.4,3.9,13.2,4.2,17.7-0.6c3.5-4.2,4.5-9,3.5-14.5c0-1.6-1-3.2-2.6-4.5
		c-4.5-3.9-9.7-5.2-15.5-4.8c-4.8-1-8.7,0.3-12.2,2.3c-4.2,2.3-5.2,7.7-1.6,11.3L148.8,70.6z"/>
	<path class="st0" d="M345.7,70.6c1.6,1.9,3.5,3.5,5.8,4.8c7.4,3.9,13.2,4.2,17.7-0.6c3.5-4.2,4.5-9,3.5-14.5c0-1.6-1-3.2-2.6-4.5
		c-4.5-3.9-9.7-5.2-15.5-4.8c-4.8-1-8.7,0.3-12.2,2.3c-4.2,2.3-5.2,7.7-1.6,11.3L345.7,70.6z"/>
	<path class="st0" d="M199.4,252.3c0,0.2,0,0.4,0,0.6c0,0.5,0,1,0.1,1.5c0.1,1.1,0.1,2.2,0.4,3.3c0.3,1.1,0.6,2.1,1.6,2.6
		c1.7,0.8,3-0.3,4.1-2c0.7-1.1,1.1-1.5,1.8-3.1c0,0,0,0,0-0.1c0.5,2.7,2,4.6,3.9,5.2c0.7,0.2,1.7,0.3,2.2,0.2c0.9-0.1,1.6-0.5,2.2-1
		c0.3-0.3,0.6-0.4,0.8-0.7c0.5-0.6,1-1.3,1.3-2c0.1-0.3,0.2-0.5,0.3-0.7c0.1,0,0.1,0,0.1,0.1c0.3,1,0.8,2,1.6,2.7
		c0.4,0.4,0.8,0.8,1.3,1c2.5,0.8,3.9-1.3,5.1-3.1c0.4-0.7,0.8-1.4,1.3-2.1c0.4-0.5,0.7-1.2,1-1.8l0.4-0.6c0.5-0.8,0.5-1,0.7-1.5
		c0.3-0.6,0.2-1,0.6-1.5c0,0,0.1-0.3,0.1-0.3c0.1-0.1,0.2-0.5,0.1-0.6c-0.1-0.1-0.2,0-0.3,0.1c-0.3,0.4-0.5,0.8-0.8,1.2
		c-0.2,0.3-0.4,0.5-0.7,0.7c-0.1,0.1-0.4,0.1-0.5,0.3c-0.3,0.5-0.6,0.7-0.8,1.2c0,0.1-0.1,0.2-0.2,0.3c-0.3,0.1-0.7,1-0.9,1.3
		c-0.4,0.5-0.6,1.1-1,1.7c-0.3,0.4-0.4,0.6-0.7,0.9c-0.4,0.6-1.2,2-2.1,1.7c-0.9-0.4-1.2-2.5-1.3-3.3c0-0.4,0,0.1-0.1-0.4
		c-0.2-0.9-0.3-1.7-0.2-2.5c0-0.4,0-0.9,0-1.3c0-0.3,0-0.5,0-0.7c0-0.5,0.3-0.9,0.3-1.4c0-0.5,0.3-0.9,0.4-1.3
		c0.5-2.2,0.7-2.5,1.1-4.2c0.6-2.5,1.7-5.2,1.8-8.1c0-0.7,0.1-1.1,0.2-1.9c0-0.8-0.2-1.6-0.4-2.4l-0.2-0.4c-0.7-0.9-1.5-1.4-2.5-1.7
		c-0.5-0.1-1-0.2-1.4,0c-0.2,0.1-0.5,0.2-0.7,0c-0.2-0.1-0.4,0-0.4,0.1c-0.1,0.4-0.5,0.7-0.7,1.1c-0.3,0.6-0.6,1.3-0.8,2
		c-0.7,2.5-1.2,5.1-1,7.9c0.1,1.7,0,3.3,0.1,5c0,0.2,0,0.3-0.3,0.2c-0.4-0.2-0.8-0.2-1.3-0.2c-0.3,0-0.8-0.3-1.1-0.3
		c-1.4,0-1.3,0.2-2.4,0.6c-0.7,0.3-1.8,1-2.2,1.5c-0.6,0.8-0.7,0.2-1.8,3c-0.3,0.6-0.4,1.9-0.5,2.9c0,0,0,0,0,0
		c-0.3,0.2-0.7,1-0.9,1.3c-0.4,0.5-0.6,1.1-1,1.7c-0.5,0.7-1.2,2.6-2,1.7c-0.5-0.6-0.2-2.2-0.2-2.9c0-0.4-0.1-0.7,0-1v-0.1
		c0-0.4,0-0.9,0-1.3c0-0.7-0.1-1.4,0-2.1c0.1-0.9,0.2-1.7-0.1-2.5c-0.4-1.5-1.3-2.5-2.8-3c-1.3-0.4-2.5-0.1-3.5,0.8
		c-0.6,0.5-0.9,1.1-1.5,1.6c-0.2-0.1-0.2-0.2-0.3-0.4c-0.1-0.3-0.3-0.5-0.5-0.6c-0.4-0.3-0.7-0.7-1.1-1c-1.8-2.1-2.7,2.7-2.7,3.8
		c0,0.5-0.1,1-0.2,1.6c-0.1,0.6-0.2,1.2-0.3,1.8c-0.1,0.1-0.2,0.3-0.3,0.5c0,0.1-0.1,0.2-0.2,0.2c-0.3,0.1-0.7,1-0.9,1.3
		c-0.4,0.5-0.6,1.1-1,1.7c-0.7,1-2.8,4.1-2.9,1c0-0.4,0-0.9,0-1.4c-0.1-0.7,0-1.3,0-1.9c0-0.3,0-0.5,0-0.8c0.1-0.8,0.2-1.5,0.3-2.3
		c0.1-1.1,0.1-2.3,0.3-3.5c0.1-0.4,0-0.8-0.2-1.3c-0.3-0.4-0.6-0.8-1-1.1c-0.3-0.3-0.6-0.4-1-0.4l-0.9-0.1c-0.6-0.1-0.7,0-1,0.6
		c-0.6,1.1-0.7,2.4-0.8,3.6c-0.4,2.6-1,5-2,7.4c-0.2,0.6-2.4,5-3.4,3.7c-0.5-0.6-0.2-2-0.2-2.8c0-0.4,0-0.9,0-1.3c0-0.5,0-1,0-1.4
		c0-0.5,0.1-1,0.1-1.5c0-0.1,0-0.3,0-0.4c0.2-0.5,0.1-1.1,0.1-1.6c0-0.9,0.2-1.8,0.2-2.8c0-0.6,0.1-1.1,0-1.7
		c-0.1-0.9-0.5-1.6-1.3-2c-0.4-0.2-0.9-0.4-1.4-0.4c-0.5,0-0.8,0.3-1.2,0.6c-0.3,0.2-0.2,0.5-0.3,0.7l-0.1,0.3
		c-0.2,1-0.6,1.9-0.7,2.9c-0.1,1.2-0.4,2.3-0.4,3.5c-0.2,3.6,0.1,10,4.7,10.6c0.7,0.1,1.3,0,1.9-0.3c0.8-0.4,1.3-1,1.8-1.7
		c0.7-0.9,1.1-2,1.5-3c0-0.1,0-0.3,0.3-0.3c0.8,1.5,1.2,3.2,2.9,4c1.4,0.6,2.6,0.2,3.7-0.7c1-0.8,1.4-1.6,2-2.6
		c0.4-0.6,0.5-0.9,0.8-1.4c-0.2,1.2-0.4,2.5-0.3,3.7c0,0.4,0,0.6,0.3,0.9c0.6,0.4,0.9,1,1.6,1.4c0.1-0.1,0-0.4,0.3-0.4
		c0.4,0.1,1,0,1.2-0.1c0.1-0.1,0.2-0.3,0.4-0.4c0.3-0.2,0.4-0.5,0.5-0.8c0-0.2,0-0.3,0.1-0.4c0.2-1.1,0.4-2.2,0.5-3.4
		c0-0.5,0-1,0.2-1.5c0.2-0.8,0.3-1.6,0.4-2.4c0-0.4,0-0.9,0.1-1.3c0.4-0.8,0.6-1.6,1.1-2.3c0.6-0.9,1.1-1.8,1.9-2.5
		c0.2-0.1,0.3-0.3,0.5-0.4c0.7-0.4,0.8-0.3,0.9,0.5c0.2,1.1,0.1,2.3,0.1,3.5C199.5,250.4,199.5,251.4,199.4,252.3z M220.4,242.3
		c0.1-1.7,0-2.2,0.2-3.8c0-0.3,0-0.5,0-0.7c0.1-0.6,0.1-1.2,0.1-1.9c0.1-1.1,0-4.1,1-5c1.1-1,1.1,1.1,1.1,1.9c0,2-0.3,3.9-0.7,5.7
		c0,0.2-0.1,0.3-0.2,0.4c-0.2,0.2-0.3,0.5-0.2,0.8c0,0.2-0.1,0.4-0.2,0.6c-0.4,0.8-0.8,2.5-1.2,3.3
		C220.2,243.4,220.4,242.5,220.4,242.3z M211.5,251.1c0-0.8,0.1-1.2,0.2-2c0.1-0.4,0.3-1.1,0.5-1.5c0.4-0.6,0.7-1.1,1.1-1.4
		c0.4-0.2,0.7-0.4,1.2-0.4c0.1,0,0.9,0.1,1,0c0.4-0.2,0.4,0,0.8,0.2c0.5,0.1,0.8,0.5,0.8,1c0,1,0.2,2,0.2,3c0,0.2,0,0.3,0,0.5
		c-0.1,1.7-0.4,3.1-1,4.5c-0.4,0.8-1.2,2.5-1.8,3.2c-0.2,0.2-0.2,0.2-0.3,0.2c0,0-0.1,0.1-0.3,0.2c-0.4,0.3-0.9,0.3-1.2-0.1
		c-0.9-1.2-1.2-3.5-1.3-5.2c0-0.2,0-0.4,0-0.5C211.5,252.2,211.5,251.6,211.5,251.1z"/>
	<path class="st0" d="M245.4,244.4c-0.4-0.2-0.8-0.2-1.3-0.2c-0.3,0-0.8-0.3-1.1-0.3c-1.4,0-1.3,0.2-2.4,0.6c-0.7,0.3-1.8,1-2.2,1.5
		c-0.6,0.8-0.7,0.2-1.8,3c-0.4,0.8-0.6,2.9-0.6,3.8c0,3.8,1.7,6.8,4.1,7.5c0.7,0.2,1.7,0.3,2.2,0.2c0.9-0.1,1.6-0.5,2.2-1
		c0.3-0.3,0.6-0.4,0.8-0.7c0.5-0.6,1-1.3,1.3-2c0.1-0.3,0.2-0.5,0.3-0.7c0.1,0,0.1,0,0.1,0.1c0.3,1,0.8,2,1.6,2.7
		c0.4,0.4,0.8,0.8,1.3,1c2.5,0.8,3.9-1.3,5.1-3.1c0.4-0.7,0.8-1.4,1.3-2.1c0.2-0.3,0.4-0.7,0.6-1c0.2,3.3,1.2,7.4,4.4,6.8
		c1.7-0.3,2.7-2.3,3.5-3.6c0.3-0.5,0.6-1,0.9-1.5c0,0.4,0.1,0.8,0.1,1.2c0,0.5,0.2,1,0.4,1.5c0.4,0.9,0.7,1.8,1.2,2.8
		c0.7,1.4,1.8,2.3,3.3,2.6c0.8,0.2,1.4,0.4,2.2,0.3c0.7-0.1,1.4,0,2-0.5c0.9-0.7,1.5-0.8,2.6-3.2l0.4-0.9c0.4-0.6,0.7-1.5,1.1-2.1
		c0.4-0.6,1.5-3.4,1.8-4l0.4-0.6c0.5-0.8,0.5-1,0.8-1.5c0.3-0.6,0.2-1,0.6-1.5c0,0,0.1-0.3,0.1-0.3c0.1-0.1,0.2-0.5,0.1-0.6
		c-0.1-0.1-0.3,0-0.3,0.1c-0.3,0.4-0.5,0.8-0.7,1.2c-0.2,0.3-0.5,0.5-0.7,0.7c-0.1,0.1-0.4,0.1-0.5,0.3c-0.3,0.5-0.5,0.7-0.8,1.2
		c0,0.1-0.1,0.2-0.2,0.3c-0.3,0.1-1.7,2.8-1.8,3.1c-0.2,0.3-0.4,0.6-0.6,0.9v0c-0.1,0.3-0.3,0.5-0.4,0.7c-0.8,1.2-2.6,5.4-4.2,4.1
		c-0.7-0.6-1.1-1.4-1.3-2.2c-0.1-0.5-0.2-1-0.4-1.4c-0.5-1.3-0.6-2.6-1-3.9c0,0,0-0.1,0-0.2c0-0.6,0.1-1.1-0.2-1.6v-0.2
		c0.1-0.5,0.1-1.1,0.1-1.7c0-0.2,0.1-0.4,0.4-0.5c0.3,0,0.5-0.1,0.6-0.2c0.7-0.3,1.4-0.8,2.1-1.1c0.4-0.2,0.8-0.5,1.1-0.9l0.4-0.5
		c1.1-1,1.4-2.9-0.1-4c-0.3-0.2-0.6-0.4-0.9-0.6c-0.1,0-0.2-0.1-0.4,0c-0.3,0-0.5-0.1-0.7-0.2c-0.9-0.2-1.8-0.3-2.7,0.1
		c-0.7,0.3-1.1,0.7-1.5,1.3c-1.7,2.6-2.2,5.9-2.4,9c-0.3,0.2-0.6,1-0.8,1.2c-0.5,0.8-2.4,4.4-3.1,4c-0.7-0.3-0.6-2.5-0.7-3.1
		c-0.1-1,0-2-0.2-3c-0.1-0.3,0-0.6,0-0.9l0.2-2.8c0-0.3,0-0.6,0-0.9c0-0.4-0.2-0.6-0.6-0.8c-0.4-0.3-0.8-0.4-1.2-0.5
		c-0.4-0.1-0.7-0.3-1,0c0,0-0.1,0-0.2,0c-0.4,0-0.6,0.2-0.7,0.4c-0.2,0.4-0.4,0.9-0.4,1.4c-0.1,1-0.1,2-0.1,3c0,0.2,0,0.4,0,0.6
		c-0.2,0.4-0.5,0.5-0.7,1c0,0.1-0.1,0.2-0.2,0.3c-0.3,0.1-0.7,1-0.9,1.3c-0.4,0.5-0.6,1.1-1,1.7c-0.3,0.4-0.4,0.6-0.7,0.9
		c-0.4,0.6-1.2,2-2.1,1.7c-0.9-0.4-1.2-2.5-1.3-3.3c0-0.4,0,0.1-0.1-0.4c-0.2-0.9-0.3-1.7-0.2-2.5c0-0.4,0-0.9,0-1.3
		c0-0.3,0-0.5,0-0.7c0-0.5,0.3-0.9,0.3-1.4c0-0.5,0.3-0.9,0.4-1.3c0.5-2.2,0.7-2.5,1.1-4.2c0.6-2.5,1.7-5.2,1.8-8.1
		c0-0.7,0.1-1.1,0.2-1.9c0-0.8-0.2-1.6-0.4-2.4l-0.2-0.4c-0.7-0.9-1.5-1.4-2.5-1.7c-0.5-0.1-1-0.2-1.4,0c-0.2,0.1-0.5,0.2-0.7,0
		c-0.2-0.1-0.4,0-0.4,0.1c-0.1,0.4-0.5,0.7-0.7,1.1c-0.3,0.6-0.6,1.3-0.8,2c-0.7,2.5-1.2,5.1-1,7.9c0.1,1.7,0,3.3,0.1,5
		C245.6,244.4,245.6,244.5,245.4,244.4z M270.6,244.6c0.1-0.2,0.1-0.4,0.1-0.5c0-0.3,0.2-0.5,0.4-0.6c0.6-0.2,1.2-0.1,1.8,0.2
		c0.2,0.1,0.3,0.3,0.2,0.5l-0.4,0.5c-0.7,0.8-1.4,1.5-2.2,2.1c-0.1,0.1-0.3,0.3-0.6,0.2C270.1,246.2,270.2,245.4,270.6,244.6z
		 M249.1,242.3c0.1-1.7,0-2.2,0.2-3.8c0-0.3,0-0.5,0-0.7c0.1-0.6,0.1-1.2,0.1-1.9c0.1-1.1,0-4.1,1-5c1.1-1,1.1,1.1,1.1,1.9
		c0,2-0.3,3.9-0.7,5.7c0,0.2-0.1,0.3-0.2,0.4c-0.2,0.2-0.3,0.5-0.2,0.8c0,0.2-0.1,0.4-0.2,0.6c-0.4,0.8-0.8,2.5-1.2,3.3
		C248.9,243.4,249.1,242.5,249.1,242.3z M245.9,247c0,1,0.2,2,0.2,3c0,0.2,0,0.3,0,0.5c-0.1,1.7-0.4,3.1-1,4.5
		c-0.4,0.8-1.2,2.5-1.8,3.2c-0.2,0.2-0.2,0.2-0.3,0.2c0,0-0.1,0.1-0.3,0.2c-0.4,0.3-0.9,0.3-1.2-0.1c-0.9-1.2-1.2-3.5-1.3-5.2
		c0-0.2,0-0.4,0-0.5c0-0.5,0-1.1,0-1.7c0-0.8,0.1-1.2,0.2-2c0.1-0.4,0.3-1.1,0.5-1.5c0.4-0.6,0.7-1.1,1.1-1.4
		c0.4-0.2,0.7-0.4,1.2-0.4c0.1,0,0.9,0.1,1,0c0.4-0.2,0.4,0,0.8,0.2C245.6,246.2,245.9,246.5,245.9,247z"/>
	<path class="st0" d="M258.4,242.8c0.2,0.3,0.5,0.5,0.8,0.6c1,0.5,1.8,0.6,2.4-0.1c0.5-0.6,0.6-1.2,0.5-2c0-0.2-0.1-0.4-0.4-0.6
		c-0.6-0.5-1.3-0.7-2.1-0.6c-0.7-0.1-1.2,0-1.7,0.3c-0.6,0.3-0.7,1-0.2,1.5L258.4,242.8z"/>
	<path class="st0" d="M288.6,257.1c0.1,1.5,0.1,3,0.1,4.4c0,0.9,0.5,1.3,1.4,1.1c0.4-0.1,0.8-0.2,1.2,0c0.5,0.2,0.8,0.1,1-0.4
		c0.2-0.3,0.4-0.5,0.5-0.9c0-0.1,0-0.2,0.1-0.3c0.3-0.5,0.4-1,0.4-1.7c0-0.2,0-0.4,0-0.5c0.2-1.5,0.3-3,0.4-4.5c0-0.6,0-1.3,0.1-1.8
		c0.2-0.6,0.1-1.1,0.2-1.7c0.1-0.5,0-1,0-1.6c0-0.4,0.1-0.4,0.4-0.4c0.3,0,0.4,0.1,0.5,0.3l0.6,1.3c0.1,0.3,0.3,0.6,0.2,1
		c0,0.2,0.1,0.3,0.2,0.4c0.1,0.1,0.2,0.3,0.3,0.4c0.3,0.8,0.7,1.6,1,2.5c0.6,1.4,1,2.8,1.8,4c0.3,0.5,0.5,1.1,0.9,1.6l1.4,1.8
		c0.3,0.3,0.6,0.6,1,0.6c0.2,0,0.4,0.2,0.6,0.3c0.3,0.1,0.5,0.2,0.7,0.1c0.4-0.2,0.7-0.2,1.1-0.4c0.3-0.1,0.5-0.3,0.7-0.6
		c0.2-0.4,0-0.6-0.2-0.9c-0.2-0.3-0.4-0.1-0.7,0c-0.4,0.2-0.6,0.1-0.8-0.3c-0.1-0.1-0.1-0.3-0.2-0.4c-0.3-0.7-0.3-1.5-0.4-2.2
		c-0.1-0.4-0.2-0.9-0.3-1.4c0-1.2-0.3-2.4-0.6-3.6c-0.3-1.4-0.9-2.5-1.8-3.5c-0.3-0.3-0.7-0.6-0.9-0.9c-0.3-0.4-0.6-0.7-1-0.9
		c-0.3-0.2-0.6-0.3-0.9-0.4c-0.2-0.1-0.2-0.2,0-0.3c0.5-0.3,0.9-0.6,1.4-0.9c0.9-0.4,1.6-1.1,2.3-1.8c0.6-0.6,1.1-1.3,1.7-2
		c1.2-1.4,1.9-3.1,2.1-5c0-1-0.3-1.9-0.9-2.6c-0.5-0.6-1.1-1.2-1.9-1.5c-0.5-0.2-1-0.3-1.6-0.2c-1.4,0.2-2.6,0.8-3.8,1.6
		c-0.7,0.6-1.4,1.2-2,1.9l-1,1.1c-0.2-0.1-0.2-0.3-0.2-0.4c0-0.8-0.4-1.5-0.7-2.2c-0.4-0.9-1.2-1.3-2.2-1.4c-0.6,0-0.9,0.4-0.8,0.9
		c0,0.3,0,0.5,0,0.7l-0.2,1.8c-0.1,0.7-0.1,1.5-0.2,2.2c-0.3,1.7-0.3,3.3-0.4,4.9c0,0.7,0,1.3-0.2,1.9c-0.2,0.7-0.2,1.5-0.3,2.3
		l-0.2,2c-0.1,0.8-0.2,1.7-0.1,2.5c0,0.4,0,0.9,0,1.3c0,0.3-0.1,0.6,0,0.8C288.5,255.9,288.5,256.5,288.6,257.1z M294.1,244.9
		c0.1-0.4,0-0.9,0.1-1.4c0-0.6,0-1.1,0-1.8c0-0.8,0.3-1.5,0.8-2.2l1.1-1.3c0.4-0.4,0.6-0.8,0.9-1.2c0.4-0.5,0.9-1,1.5-1.3
		c0.4-0.1,0.8-0.4,1.2-0.6c0.5-0.3,1-0.3,1.5-0.3c0.7,0,1.3,0.7,1.3,1.4c-0.2,1-0.4,2.1-0.9,3c-0.7,1.3-1.6,2.5-2.5,3.7
		c-0.4,0.6-1,1-1.6,1.4c-0.9,0.6-1.8,1.1-2.8,1.6c-0.4,0.2-0.4,0.2-0.6-0.3C294.1,245.5,294,245.2,294.1,244.9z"/>
	<path class="st0" d="M322,242.8c0.2,0.3,0.5,0.5,0.8,0.6c1,0.5,1.8,0.6,2.4-0.1c0.5-0.6,0.6-1.2,0.5-2c0-0.2-0.1-0.4-0.4-0.6
		c-0.6-0.5-1.3-0.7-2.1-0.6c-0.7-0.1-1.2,0-1.7,0.3c-0.6,0.3-0.7,1-0.2,1.5L322,242.8z"/>
	<path class="st0" d="M333.3,265.5c0.1,0,0.2,0,0.3,0c0.3,0,0.6,0,0.8,0c0.4,0,0.7-0.1,1-0.2c0.2-0.1,0.4-0.2,0.6-0.2
		c0.4,0,0.8-0.4,1.2-0.4h0c0.4-0.2,0.7-0.5,1-0.7c0.2-0.2,0.5-0.3,0.6-0.5c0.1-0.4,0.5-0.7,0.6-1.1c0.1-0.4,0.3-0.7,0.4-1.1
		c0-0.5,0.4-1,0.3-1.6c0-0.3,0-0.6-0.1-0.9c-0.2-0.4-0.3-0.8-0.4-1.3c-0.1-0.4-0.2-0.9-0.4-1.4c-0.1-0.3-0.3-0.7-0.4-1l-0.3-0.6
		c-0.3-0.4-0.6-0.7-0.9-1.1c-0.3-0.4-0.5-0.8-0.7-1.2c-0.3-0.6-0.7-1-0.9-1.6c-0.3-0.6-0.6-1.1-1.1-1.6c-0.6-0.6-0.9-1.3-1.3-1.9
		c-0.3-0.4-0.4-0.9-0.7-1.3c-0.2-0.3-0.2-0.6,0.1-1c0,0,0.1-0.1,0.1-0.2c0-0.2,0.1-0.2,0.3-0.2l0.5-0.1c0.5-0.2,1,0,1.4,0.3
		c0.4,0.4,0.7,0.9,1,1.4c0.2,0.4,0.5,0.9-0.1,1.4c-0.3,0.2-0.2,0.5-0.1,0.9c0.1,0.3,0.4,0.2,0.6,0.3c0.4,0,1-0.3,1-0.6
		c0.2-0.6,0.4-1,0.2-1.6c-0.1-0.6-0.4-1.2-0.8-1.7c-0.2-0.2-0.4-0.4-0.5-0.6c-0.1-0.1-0.2-0.3-0.4-0.4c-0.4-0.2-0.9-0.2-1.3-0.2
		c-0.3,0-0.6,0-0.8,0c-0.4,0-0.7,0-1,0c-0.9,0.3-1.6,0.7-2.1,1.4c-0.5,0.8-1,1.6-1.2,2.5c-0.1,0.4-0.2,0.9-0.1,1.3
		c0.1,0.5,0.2,1,0.3,1.4c0,0.2,0.1,0.5,0.2,0.7c-0.3,0.5-0.5,0.6-0.8,1.2c0,0.1-0.1,0.2-0.2,0.3c-0.3,0.1-0.7,1-0.9,1.3
		c-0.5,0.8-2.4,4.4-3.1,4c-0.7-0.3-0.6-2.5-0.7-3.1c-0.1-1,0-2-0.2-3c-0.1-0.3,0-0.6,0-0.9l0.2-2.8c0-0.3,0-0.6,0-0.9
		c0-0.4-0.2-0.6-0.6-0.8c-0.4-0.3-0.8-0.4-1.2-0.5c-0.4-0.1-0.7-0.3-1,0c0,0-0.1,0-0.2,0c-0.4,0-0.6,0.2-0.7,0.4
		c-0.2,0.4-0.4,0.9-0.4,1.4c-0.1,1-0.1,2-0.1,3c0,0.2,0,0.5,0,0.9c-0.1,0.2-0.3,0.4-0.5,0.7c0,0.1-0.1,0.2-0.2,0.3
		c-0.3,0.1-1.7,2.8-1.8,3.1c-0.2,0.3-0.4,0.6-0.6,0.9v0c-0.1,0.3-0.3,0.5-0.4,0.7c-0.8,1.2-2.6,5.4-4.2,4.1
		c-0.7-0.6-1.1-1.4-1.3-2.2c-0.1-0.5-0.2-1-0.4-1.4c-0.5-1.3-0.6-2.6-1-3.9c0,0,0-0.1,0-0.2c0-0.6,0.1-1.1-0.2-1.6v-0.2
		c0.1-0.5,0.1-1.1,0.1-1.7c0-0.2,0.1-0.4,0.4-0.5c0.3,0,0.5-0.1,0.6-0.2c0.7-0.3,1.4-0.8,2.1-1.1c0.4-0.2,0.8-0.5,1.1-0.9l0.4-0.5
		c1.1-1,1.4-2.9-0.1-4c-0.3-0.2-0.6-0.4-0.9-0.6c-0.1,0-0.2-0.1-0.4,0c-0.3,0-0.5-0.1-0.7-0.2c-0.9-0.2-1.8-0.3-2.7,0.1
		c-0.7,0.3-1.1,0.7-1.5,1.3c-1.9,2.8-2.3,6.6-2.5,10c0,1.1,0.1,2.2,0.2,3.3c0,0.5,0.2,1,0.4,1.5c0.4,0.9,0.7,1.8,1.2,2.8
		c0.7,1.4,1.8,2.3,3.3,2.6c0.8,0.2,1.4,0.4,2.2,0.3c0.7-0.1,1.4,0,2-0.5c0.9-0.7,1.5-0.8,2.6-3.2l0.4-0.9c0.4-0.6,0.7-1.5,1.1-2.1
		c0.3-0.4,0.8-1.7,1.2-2.8c0.3,3.2,1.3,6.8,4.4,6.3c1.7-0.3,2.7-2.3,3.5-3.6c0.4-0.7,0.8-1.4,1.3-2.1c0.4-0.6,0.7-1.2,1-1.8
		c0.1-0.2,0.2-0.4,0.3-0.6c0,0,0,0,0-0.1c0.5,0.9,1.1,1.8,1.7,2.6c0.4,0.7,1,1.3,1.3,2.1c0.3,0.7,0.7,1.4,0.9,2.1
		c0,0.2,0.1,0.5,0.3,0.7c0.1,0.1,0.1,0.3,0,0.4c0,0.2,0,0.3,0,0.5c0,0.3,0,0.6-0.1,0.8l-0.2,0.5c-0.2,0.5-0.3,1-0.9,1.2
		c-0.4,0.1-0.7,0.4-1,0.4c-0.2,0-0.3-0.1-0.4-0.1c-0.3,0.1-0.6,0-0.8-0.1c-0.5-0.4-0.9-0.7-1-1.3c0-0.4,0-0.8,0-1.1
		c0-0.2,0-0.3,0.2-0.4c0.4-0.2,0.5-0.5,0.5-0.9c0-0.1,0-0.1,0.1-0.2c0.2-0.2,0.4-0.4,0.7-0.6c0.2-0.1,0.4-0.3,0.4-0.4
		c0-0.1,0-0.2,0.1-0.2c0.2-0.1,0.3-0.3,0.4-0.4c0,0,0.1,0,0.1-0.1c0,0-0.1-0.1-0.1-0.1c-0.3,0-0.5,0-0.7,0.2c0,0.1-0.2,0.2-0.3,0.2
		c-0.2,0-0.4,0-0.5,0.1c-0.3,0.2-0.4,0.4-0.7,0.6c-0.4,0.2-0.7,0.5-0.9,0.8s-0.4,0.6-0.5,1c-0.2,0.3-0.4,0.7-0.4,1.1
		c-0.1,0.6-0.1,1.3,0.2,1.8c0.2,0.4,0.5,0.8,0.8,1.1c0,0.1,0.2,0.2,0.4,0.2c0.2,0,0.3,0,0.4,0.1c0.1,0.2,0.3,0.3,0.5,0.4
		c0.4,0.1,0.8,0.2,1.3,0.1C333.1,265.3,333.2,265.4,333.3,265.5z M310.9,244.6c0.1-0.2,0.1-0.4,0.1-0.5c0-0.3,0.2-0.5,0.4-0.6
		c0.6-0.2,1.2-0.1,1.8,0.2c0.2,0.1,0.3,0.3,0.2,0.5l-0.4,0.5c-0.7,0.8-1.4,1.5-2.2,2.1c-0.1,0.1-0.3,0.3-0.6,0.2
		C310.4,246.2,310.5,245.4,310.9,244.6z"/>
	<path class="st0" d="M345.6,249.7c0-0.2,0.1-0.4,0.4-0.5c0.3,0,0.5-0.1,0.6-0.2c0.7-0.3,1.4-0.8,2.1-1.1c0.4-0.2,0.8-0.5,1.1-0.9
		l0.4-0.5c1.1-1,1.4-2.9-0.1-4c-0.3-0.2-0.6-0.4-0.9-0.6c-0.1,0-0.2-0.1-0.4,0c-0.3,0-0.5-0.1-0.7-0.2c-0.9-0.2-1.8-0.3-2.7,0.1
		c-0.7,0.3-1.1,0.7-1.5,1.3c-1.9,2.8-2.3,6.6-2.5,10c0,1.1,0.1,2.2,0.2,3.3c0,0.5,0.2,1,0.4,1.5c0.4,0.9,0.7,1.8,1.2,2.8
		c0.7,1.4,1.8,2.3,3.3,2.6c0.8,0.2,1.4,0.4,2.2,0.3c0.7-0.1,1.4,0,2-0.5c0.9-0.7,1.5-0.8,2.6-3.2l0.4-0.9c0.4-0.6,0.7-1.5,1.1-2.1
		c0.4-0.6,1.5-3.4,1.8-4l0.4-0.6c0.5-0.8,0.5-1,0.8-1.5c0.3-0.6,0.2-1,0.6-1.5c0,0,0.1-0.3,0.1-0.3c0.1-0.1,0.2-0.5,0.1-0.6
		c-0.1-0.1-0.3,0-0.3,0.1c-0.3,0.4-0.5,0.8-0.7,1.2c-0.2,0.3-0.5,0.5-0.7,0.7c-0.1,0.1-0.4,0.1-0.5,0.3c-0.3,0.5-0.5,0.7-0.8,1.2
		c0,0.1-0.1,0.2-0.2,0.3c-0.3,0.1-1.7,2.8-1.8,3.1c-0.2,0.3-0.4,0.6-0.6,0.9v0c-0.1,0.3-0.3,0.5-0.4,0.7c-0.8,1.2-2.6,5.4-4.2,4.1
		c-0.7-0.6-1.1-1.4-1.3-2.2c-0.1-0.5-0.2-1-0.4-1.4c-0.5-1.3-0.6-2.6-1-3.9c0,0,0-0.1,0-0.2c0-0.6,0.1-1.1-0.2-1.6v-0.2
		C345.6,250.9,345.6,250.3,345.6,249.7z M346.4,244.6c0.1-0.2,0.1-0.4,0.1-0.5c0-0.3,0.2-0.5,0.4-0.6c0.6-0.2,1.2-0.1,1.8,0.2
		c0.2,0.1,0.3,0.3,0.2,0.5l-0.4,0.5c-0.7,0.8-1.4,1.5-2.2,2.1c-0.1,0.1-0.3,0.3-0.6,0.2C346,246.2,346.1,245.4,346.4,244.6z"/>
	<path class="st0" d="M321.8,295.8c0,1.8,0.7,3.5,2.8,3.6c2.2,0.1,2.9-1.5,3.6-2.6l0.1-0.2c0.4-0.6,1.2-2,1.7-3
		c0.3-0.6,0.5-1,0.8-1.6l0.5-1l0.8-1.5c0.3-0.6,0.2-1,0.6-1.5c0,0,0.1-0.3,0.1-0.4c0-0.1,0.2-0.5,0.1-0.6c-0.1-0.1-0.2,0-0.3,0
		c-0.2,0.4-0.5,0.8-0.7,1.2c-0.2,0.3-0.5,0.5-0.7,0.8c-0.1,0.1-0.4,0-0.4,0.2c-0.4,0.6-0.6,0.7-0.9,1.3c0,0.1-0.1,0.2-0.2,0.2
		c-0.3,0.2-0.7,1.3-0.9,1.5c-0.4,0.5-0.9,1.7-1.2,2.2c-0.6,0.8-1.4,2.2-1.7,1.9c-0.5-0.4-0.2-2.2-0.1-3c0.1-1.7,0.4-3.4,0.4-5
		l-0.1-2.4c0-0.8-0.3-1.6-0.7-2.1c-0.9-1.1-2.9-1.2-4.1-0.6c-1.3,0.6-2.3,1.8-3.1,3.2c-0.7,1.2-1.4,2.5-1.8,4
		c-0.1,0.5-0.4,0.9-0.6,1.4c-0.1-0.1,0-0.2,0-0.3l-0.1-1.5c-0.1-1.4-0.3-2.7-0.5-4c0-0.5-0.2-0.9-0.5-1.1l-1-1
		c-0.7-0.6-1.4-0.4-2.2-0.2c0,0,0,0-0.1,0c-0.7,0.5-1.3,1.2-1.8,2.1c-0.3,0.6-0.7,1.3-0.9,2c-0.1,0.3-0.2,0.6-0.5,0.9
		c0-0.4,0-0.6,0-0.8c0-0.7,0.1-1.4,0-2.1c0-0.1,0-0.2,0-0.3c0.1-0.3,0-0.5,0-0.8c-0.1-0.4-0.1-0.6-0.1-1c0-0.2-0.1-0.4-0.2-0.5
		c-0.4-0.8-1-1.1-1.8-1.2l-0.6-0.1c-0.9-0.1-0.9,4.4-1,5l-0.4,3.7c0,0.1-0.1,0.1-0.1,0.2c-0.3,0.1-0.7,1-0.9,1.3
		c-0.4,0.5-0.6,1.1-1,1.7c-0.7,1-2.8,4.1-2.9,1c0-0.4,0-0.9,0-1.4c-0.1-0.7,0-1.3,0-1.9c0-0.3,0-0.5,0-0.8c0.1-0.8,0.2-1.5,0.3-2.3
		c0.1-1.1,0.1-2.3,0.3-3.5c0.1-0.4,0-0.8-0.2-1.3c-0.3-0.4-0.6-0.8-1-1.1c-0.3-0.3-0.6-0.4-1-0.4l-0.9-0.1c-0.6-0.1-0.7,0-1,0.6
		c-0.6,1.1-0.7,2.4-0.8,3.6c-0.4,2.6-1,5-2,7.4c-0.2,0.6-2.4,5-3.4,3.7c-0.5-0.6-0.2-2-0.2-2.8c0-0.4,0-0.9,0-1.3c0-0.5,0-1,0-1.4
		c0-0.5,0.1-1,0.1-1.5c0-0.1,0-0.3,0-0.4c0.2-0.5,0.1-1.1,0.1-1.6c0-0.9,0.2-1.8,0.2-2.8c0-0.6,0.1-1.1,0-1.7
		c-0.1-0.9-0.5-1.6-1.3-2c-0.4-0.2-0.9-0.4-1.4-0.4c-0.5,0-0.8,0.3-1.2,0.6c-0.3,0.2-0.2,0.5-0.3,0.7l-0.1,0.3
		c-0.2,1-0.6,1.9-0.7,2.9c-0.1,1.2-0.4,2.3-0.4,3.5c-0.1,1.5-0.1,3.5,0.3,5.3c0,0-0.1,0-0.1,0.1c-0.5,0.4-0.8,1-1.4,1.4
		c-0.5,0.4-1,0.7-1.6,0.9c-1,0.4-2,0.1-3,0c-0.2,0-0.2-0.1-0.2-0.3l0.1-0.4c0.1-0.7,0.4-1.4,0.4-2c0.1-0.4,0.3-0.7,0.3-1
		c0.1-0.6,0.3-1.1,0.4-1.6c0.2-0.5,0.4-1,0.5-1.5c0.1-0.8,0.5-1.5,0.5-2.4c0,0,0,0,0-0.1c0.3-0.9,0.6-1.8,0.8-2.8
		c0-0.3,0.2-0.6,0.1-1c-0.2-0.5-0.4-1-0.7-1.5c-0.4-0.7-1-1.3-1.7-1.5c-0.4-0.1-0.7-0.3-1-0.4c-0.3-0.2-0.4-0.1-0.6,0.1l-0.5,0.8
		c-0.1,0.2-0.2,0.3-0.4,0.3c-0.4,0-0.9,0.1-1.3,0.2c-0.8,0.2-1.7,0.4-2.6,0c-0.3-0.1-0.6,0-0.8,0c-0.1,0-0.3,0.1-0.3,0.2
		c0,0.3,0,0.6,0.2,0.8c0.4,0.6,0.9,0.9,1.5,1c0.6,0,1.2,0.1,1.8,0c0.2,0,0.4,0,0.5,0c0.3,0,0.4,0,0.3,0.4c-0.2,0.9-0.5,1.9-0.7,2.8
		l-0.5,2c-0.4,1.9-0.8,3.9-1,5.8c-0.1,0.7-0.2,1.3-0.1,1.9c0,0.1,0,0.2-0.1,0.3c-0.3,0.3-0.3,0.4,0,0.6c0.1,0.1,0.3,0.2,0.3,0.4
		c0.1,0.4,0.4,0.5,0.7,0.6c0.3,0,0.6,0,0.9,0.2c0.1,0,0.1,0.1,0.2,0c0.2-0.3,0.4-0.3,0.7-0.1c0.4,0.3,0.8,0.2,1.1-0.1
		c0,0,0.1-0.1,0.1-0.1c0.1-0.2,0.3-0.2,0.5-0.1c0.4,0.1,0.7,0.3,1,0.4c0.7,0.1,1.4,0.1,2.1,0.1c0.9,0,1.6-0.4,2.1-0.9
		c0.2-0.2,0.4-0.4,0.7-0.5c0.5-0.3,0.9-0.7,1.1-1.2c0.7,1.9,1.9,3.3,4,3.6c0.7,0.1,1.3,0,1.9-0.3c0.8-0.4,1.3-1,1.8-1.7
		c0.7-0.9,1-2,1.5-3c0-0.1,0-0.3,0.3-0.3c0.8,1.5,1.2,3.2,2.9,4c1.4,0.6,2.6,0.2,3.7-0.7c1-0.8,1.4-1.6,2-2.6c0.2-0.4,0.4-0.7,0.6-1
		c-0.1,0.8-0.1,1.6-0.1,2.4c0,0.2,0,0.5,0,0.7c-0.1,0.8,0,1.6,0.3,2.3c0.5,1,1.6,0.1,2.2,0.9c0.2,0.2,0.5,0.2,0.6-0.1
		c0-0.1,0.1-0.3,0.1-0.4c0.1-0.4,0.1-0.8,0.3-1.3c0.2-0.8,0.4-1.5,0.6-2.3c0.2-0.9,0.4-1.8,0.7-2.6c0.1-0.3,0.2-0.7,0.2-1
		c0.1-0.4,0.2-0.7,0.3-1c0.2-0.5,0.4-0.9,0.4-1.5c0-0.1,0.1-0.3,0.1-0.4l0.5-1.5c0.4-1,0.5-1.4,1.1-2.1c0.2-0.3,0.4-0.5,0.7-0.7
		c0.1,0,0.2,0,0.3,0.2c0.1,0.3,0.1,0.5,0.1,0.8c0.1,1.6,0.1,3.2,0.2,4.8l0.1,3.6c0,0.8,0.1,1.6,0.1,2.4c0,0.4,0,0.9,0.4,1
		c0,0,0.1,0.1,0.1,0.1c0.2,0.4,0.7,0.4,1.1,0.4c0.1,0,0.2,0.1,0.2,0.1c0.3,0.2,0.5,0.1,0.6-0.3l0.3-0.7c0.1-0.2,0.2-0.4,0.3-0.6
		c0.5-1.3,0.8-2.5,1.2-3.8l0.4-1.1c0.3-0.7,0.6-1.5,0.8-2.3c0.1-0.4,0.5-1.1,0.7-1.5l0.6-1.4c0.6-1.1,1.2-1.9,2.1-2.4
		c0.6-0.3,1,0.4,1,1.2c0,0.6-0.1,1.1-0.1,1.8c-0.1,1.3-0.3,2.6-0.5,3.9h0C321.6,293.4,321.8,294.5,321.8,295.8z"/>
	<path class="st0" d="M160.8,346.9c-0.7-1.5-1.5-2.9-2.6-4c-3.3-3.1-6.9-5.6-11.4-6.5c-0.4-0.1-0.7-0.3-1.1-0.7
		c0.8-0.7,1.6-1.5,2.2-2.3l3.3-4.9c1.2-1.6,2.2-3.4,2.9-5.4c0.4-1.4,0.8-2.7,1.5-4c0.9-2,1.4-4.1,0.8-6.4c-0.1-0.3,0-0.5-0.1-1
		c-0.3-2.2-0.9-4.5-2.2-6.4c-1.4-2-3.1-3.7-5.4-4.9c-2.4-1.1-5-1.8-7.8-1.4c-2.2,0.3-4.1,1.1-6.1,1.6l-1.9,1
		c-2.3,1.6-4.5,3.4-6.3,5.6c-0.4-0.3-0.4-0.4-0.4-0.7c0.1-1.6-0.1-3.3-0.5-4.9c-0.5-1.8-1.2-3.4-2.6-4.8c-1.6-1.8-3.9-2.3-6.3-2.6
		c-1.8-0.1-2.7,0.7-2.9,2.5l-0.3,1.9c-0.7,3.5-1.4,7.1-1.5,10.6c-0.1,3.4-0.3,6.7-0.5,9.9l-0.7,13.2l-0.5,7.5
		c-0.3,2.9-0.7,5.9-0.4,8.9c0,0.8,0.3,1.6,0.1,2.5c-0.3,2-0.1,4.1-0.4,6.1c-0.3,1.6-0.4,3.4-0.4,5c-0.1,5.6,0.5,11.2,0.7,16.7
		c0.1,1.5-0.1,3,0.1,4.5c0.5,2.2,0.7,4.4,1.1,6.4c0.3,1.4,0.8,2.5,1.6,3.5c0.3,0.4,0.8,0.7,1.4,0.4c2-1.1,3.7-2.6,4.2-4.9
		c0.7-2.9,1.1-5.9,1.6-8.7c0.4-1.5,0.4-3.3,0.9-4.8c0.9-2.2,1.1-4.5,1.2-6.8c0.3-3.7,0.5-7.5,0.7-11.2c0.1-1,0.4-1.9,0.4-3l0.5-6.9
		c0-0.7,0.1-1,0.9-1c2.9,0.3,5.4-0.7,8-1.8c1.9-0.8,3.8-1.6,5.9-2.2c1.1-0.4,2.3-0.5,3.4-0.8c0.8-0.1,1.5,0,2,0.4l1.4,1
		c2.2,1.4,3.9,2.9,4.5,5.4c0,0.4,0.1,0.7,0.3,1c0.8,1.2,0.9,2.6,0.9,4c0.1,4.2,0.7,8.4-0.8,12.5c-0.5,6-3.4,10.8-7.4,15
		c-0.9,1-1.9,1.5-3.3,1.8c-0.5,0.1-1.2-0.1-1.9-0.1c-1.4,0.1-2.6-0.3-3.7-1.2c-1.9-1.8-3-4.1-3.9-6.4c-0.5-1.4-1.5-1.9-2.7-2.5
		c-0.7-0.1-1.5-0.4-2,0.1c-0.5,0.5-0.1,1.2,0,1.9c0.9,3.1,2.6,5.9,4.2,8.7c0.7,1.1,1.5,2,2.6,2.7c0.7,0.4,1.2,1.1,1.8,1.6
		c2,2.2,4.5,3.7,7.8,3.1c0.5-0.1,1.2-0.1,1.8,0.1c0.3,0.3,0.7,0.4,1.1,0.4c1.9-0.1,3.8-1,5.9-0.8c1.5-1.1,3.4-1.6,4.2-3.4
		c0.4-0.8,0.9-1.5,1.5-2c1.4-1,2-2.5,2.6-3.8c1.2-3.3,2.4-6.5,3.4-9.8c1.5-5.2,1.6-10.3,1.4-15.5C163.2,353,162.3,349.8,160.8,346.9
		z M142.7,318c-0.7,2.2-1.5,4.4-2,6.5c-0.7,2.7-2.3,5-3.9,7.2c-1.4,1.5-2.3,3.4-3.8,4.8c-0.5,0.5-1.1,1.2-1.6,1.6
		c-2.2,1.4-3.9,3.1-6.4,4.2c-1.1,0.5-1.4,0.4-1.4-0.8c-0.1-1.6,0-3.1,0.4-4.8c0.5-2.3,0.8-4.8,0.9-7.2c0.3-3.1,0.5-6.3,0.9-9.5
		c0-0.3,0-0.5,0.1-0.7l3.3-6.3c1.2-2.2,2.9-4,4.6-5.6c0.8-0.8,1.9-1.4,3.1-1.2c1.1,0,2.2-0.3,3.4-0.3c1.6,0,2.6,0.8,2.7,2.5
		c0.3,1.6,0.9,3.1,0.5,4.8C144.1,315.1,143.2,316.6,142.7,318z"/>
	<path class="st0" d="M493.7,343c-0.4-0.3-0.7,0-1,0.3c-0.7,1.1-1.5,2.6-2.3,3.5c-0.7,1-1.5,1.6-2.2,2.3c-0.5,0.4-1.2,0.3-1.5,0.8
		c-1.1,1.6-1.8,2.2-2.7,4c-0.1,0.3-0.3,0.5-0.5,0.7c-0.8,0.4-2.2,3.3-2.7,4c-1.1,1.6-1.6,2.9-2.9,4.5c-1,1.4-5.3,7.8-8.4,12.1
		c-2.2,2.2-6.9,7.5-9.1,7.9c-0.8,0.1-1.4,0.1-1.9-0.4c-0.3-0.4-0.7-0.8-0.8-1.2c-0.7-1.6-1.1-3.1-1.1-4.9c0-0.4-0.1-0.7-0.1-1.1
		c-0.3-1.6-0.4-3.3-0.5-4.9c-0.3-1.5,0.1-3-0.1-4.4c0-0.7-0.3-1.2-0.1-1.8c0.4-1.9,0.1-3.8,0.3-5.7c0.1-2,0.5-4.1,1.6-6
		c0.5-1.1,1.4-1.9,1.9-3c1.2-2.3,2.3-4.6,3.4-7.1c1.8-4,3.7-7.9,5-12l1.1-2.9c1.5-4.1,3-8,4-12.2c0.5-2.6,1.1-5,1.5-7.6
		c0.5-2.5,0.5-5,1-7.6l-0.3-1.9c-0.1-1.4-0.3-2.6-0.7-3.8c-0.3-1.4-1.2-2.3-2.2-3.1c-1.2-1.1-2.6-1.5-4-2.2c-0.3-0.1-0.7-0.1-1,0
		l-1.1,0.3c-1.5,0-3,0.4-4.4,1.2c-0.3,0.1-0.5,0.3-0.8,0.3c-1.4,0.3-2.3,1.4-3.1,2.3c-1.9,2-3.3,4.4-4.2,6.9
		c-2.5,5.6-4.8,11.3-6.3,17.1c-1,3.7-1.8,7.4-2.5,11.2c-0.1,1-0.4,1.9-0.4,2.9c-0.1,3.1-0.5,6.1-1,9.3c-0.4,3.7-0.8,7.4-1,11
		c0,2.2,0,4.5,0,6.8c0,0,0,0,0,0c-1.1,1.6-1.9,3.5-3,5.2c-1.4,2-10.2,16.3-9.3,6.8c0.4-4,0.5-8,0.8-12c0-2.6,0.1-5.2,0.8-7.8
		c0.8-3.1,0.8-6.3,1.4-9.4c0.1-0.5,0.1-1,0-1.4c-0.3-1.1-0.3-2,0.1-3c0-0.3,0.1-0.5-0.1-0.8c-0.8-1.5-1.8-2.6-3.5-3.1
		c-1.9-0.5-2.2-0.4-3.3,1.1c-0.7,0.7-1,1.8-1.8,2.5l-1.8-1.6c-2.5-2.5-5.6-3-8.7-3.4c-1-0.1-1.8-0.1-2.6-0.5
		c-2.2-1.6-4.5-1.1-6.5-0.1c-2.9,1.4-5.5,3.4-7.4,6c-3.1,3.9-5.5,8-7,12.7c-1.7,2.3-3.7,3.9-5.8,4.3c-0.5,0.1-4.6,0.4-4.6-0.5v-3.1
		c-0.3-3.7-1.2-7.4-2-11.2c-0.8-3.4-2.2-6-4.1-7.6c-2.5-2.3-5.2-2.6-7.9-1.1c-1.1,0.5-2,1.8-2.5,3.7c-0.5,3.5,0,7.8,1.2,11.7
		c1.2,3.3,2.9,6.5,4.9,8.9c1.2,1.5,2.2,3.1,3.7,3.7c0.5,0.3,1,0.5,0.8,1.6v2.3l-0.7,5c-0.5,3.3-1.6,6.5-3.4,9.4
		c-0.8,1.5-2.6,4.4-4.6,4.1c-2.2-0.3-2.6-3.4-3-5c-0.7-3-1.1-6.3-1.5-9.4c-0.3-2.2-0.4-4.2-0.5-6.3c-0.3-2.9-0.4-5.6-0.5-8.3
		c0-2,0-4.1-0.5-6c-0.5-1.5-1.4-2.5-2.5-3c-1.1-0.7-2.5-1-3.7-0.8c-1.2,0.1-2.3,0.8-3.4,1.1c-0.5,0-0.8,0.7-0.7,1.5
		c0.1,0.5,0.3,1.2,0.3,1.8c0,2.3,0.1,4.6,0.4,6.9c0.1,1,0,1.9-0.4,2.9l-1.2,3.4c-1.1,2.5-2,5-2.9,7.6c-0.3,1.2-0.7,2.3-1.2,3.3
		c-1.2,2.2-2.3,4.4-3.1,6.8c-0.1,0.4-0.3,0.8-0.5,1.2c-0.5,1.4-1.4,2.2-2.7,1.6c-0.8-0.3-1.4-0.7-1.9-1.5c-0.8-1.8-1.1-3.8-1.4-5.7
		c-0.5-2.6-0.3-5.2-0.5-7.8c-0.3-2.9,0.4-5.6,0.3-8.4v-2c0.4-3.1,0.7-6.3,0.8-9.4c0-1.9,0.1-3.8,0.4-5.7c0.5-4.1,0-7.9-1.6-11.4
		c-0.5-1.2-1.4-1.9-2.5-1.9c-1.4,0-2.7,0-4,0.4c-0.7,0.1-1,0.4-1.1,1.1c-0.8,3.1-1.6,6.3-2.3,9.5c-1,6-1.6,12.1-2.4,18.2
		c-0.8,1-1.6,2.7-2,3.2c-1.2,1.6-1.9,3.5-3,5.3c-2.3,3.1-8.9,12.8-9,3c0-1.4,0.1-2.9,0-4.4c-0.3-2,0.1-4,0.1-6
		c0-0.8-0.1-1.6,0.1-2.5c0.4-2.5,0.5-4.8,0.8-7.1c0.4-3.5,0.3-7.2,0.8-10.8c0.3-1.4,0-2.6-0.7-4c-0.8-1.4-1.8-2.5-3-3.4
		c-0.8-0.8-1.8-1.2-3-1.4l-2.7-0.3c-1.8-0.3-2.3,0.1-3,1.8c-1.8,3.5-2,7.4-2.6,11.2c-1.1,8.2-3.1,15.5-6.3,23.1
		c-0.7,1.9-7.4,15.6-10.5,11.4c-1.5-2-0.7-6.3-0.5-8.7c0-1.4,0.1-2.7,0-4.1c-0.1-1.5,0-3,0-4.5c0.1-1.5,0.4-3.1,0.4-4.6
		c0-0.4-0.1-1,0-1.2c0.7-1.6,0.4-3.4,0.4-5c0.1-2.9,0.5-5.7,0.7-8.6c0.1-1.8,0.4-3.5,0.1-5.3c-0.4-2.7-1.6-4.9-4.1-6.1
		c-1.4-0.7-2.9-1.2-4.5-1.2c-1.5-0.1-2.6,1-3.8,1.8c-1,0.5-0.7,1.5-1,2.2l-0.3,1c-0.7,3-1.8,5.9-2.2,9c-0.4,3.7-1.1,7.2-1.2,10.9
		c-0.1,1.7-0.2,3.6-0.1,5.5c-0.7,1-1.4,2.4-1.8,2.9c-1.1,1.6-1.9,3.5-3,5.2c-1.4,2-10.2,16.3-9.3,6.8c0.4-4,0.5-8,0.8-12
		c0-2.6,0.1-5.2,0.8-7.8c0.8-3.1,0.8-6.3,1.4-9.4c0.1-0.5,0.1-1,0-1.4c-0.3-1.1-0.3-2,0.1-3c0-0.3,0.1-0.5-0.1-0.8
		c-0.8-1.5-1.8-2.6-3.5-3.1c-1.9-0.5-2.2-0.4-3.3,1.1c-0.7,0.7-0.9,1.8-1.8,2.5l-1.8-1.6c-2.4-2.5-5.6-3-8.7-3.4
		c-0.9-0.1-1.8-0.1-2.6-0.5c-2.2-1.6-4.5-1.1-6.5-0.1c-2.9,1.4-5.4,3.4-7.4,6c-3.7,4.6-6.5,9.7-7.8,15.6c-0.3,1.5-0.6,2.9-0.8,4.5
		c-0.4,0.7-0.7,1.3-0.9,1.5c-1.1,1.6-1.6,2.9-2.9,4.5c-0.9,1.4-5.3,7.8-8.4,12.1c-2.2,2.2-6.9,7.5-9.1,7.9c-0.8,0.1-1.4,0.1-1.9-0.4
		c-0.3-0.4-0.7-0.8-0.8-1.2c-0.7-1.6-1.1-3.1-1.1-4.9c0-0.4-0.1-0.7-0.1-1.1c-0.3-1.6-0.4-3.3-0.5-4.9c-0.3-1.5,0.1-3-0.1-4.4
		c0-0.7-0.3-1.2-0.1-1.8c0.4-1.9,0.1-3.8,0.3-5.7c0.1-2,0.5-4.1,1.6-6c0.5-1.1,1.4-1.9,1.9-3c1.2-2.3,2.3-4.6,3.4-7.1
		c1.8-4,3.7-7.9,5-12l1.1-2.9c1.5-4.1,3-8,3.9-12.2c0.5-2.6,1.1-5,1.5-7.6c0.5-2.5,0.5-5,0.9-7.6l-0.3-1.9c-0.1-1.4-0.3-2.6-0.7-3.8
		c-0.3-1.4-1.2-2.3-2.2-3.1c-1.2-1.1-2.6-1.5-3.9-2.2c-0.3-0.1-0.7-0.1-0.9,0l-1.1,0.3c-1.5,0-3,0.4-4.4,1.2
		c-0.3,0.1-0.5,0.3-0.8,0.3c-1.4,0.3-2.3,1.4-3.1,2.3c-1.9,2-3.3,4.4-4.2,6.9c-2.4,5.6-4.8,11.3-6.3,17.1c-0.9,3.7-1.8,7.4-2.4,11.2
		c-0.1,1-0.4,1.9-0.4,2.9c-0.1,3.1-0.5,6.1-0.9,9.3c-0.4,3.7-0.8,7.4-0.9,11c-0.1,7.1,0.1,14.3,1.4,21.2c0.5,3,1.8,5.7,3,8.4
		c0.7,1.5,1.8,2.7,2.6,4.1c0.5,0.8,1.2,1.6,2.2,2l2.7,1.4c1.4,0.7,2.4,2.3,4.1,1.8c0.1,0,0.3,0.1,0.4,0.1c1.1,0.3,2.2-0.1,3.1-0.7
		l1.6-1c2-1.2,3.8-2.7,5.4-4.4c1.2-1,2.2-2.3,3.3-3.5c1.4-1.6,2.7-4.2,4.2-5.7c0-0.1,0.1-0.3,0.1-0.3l0.4-0.4
		c0.8-0.8,1.2-1.9,1.8-2.9c0.4-0.5,0.8-1.1,1.1-1.8c0.3-0.3,0.5-0.7,0.7-1.1l0.1-0.2c0.4,5.9,2.4,11.4,7.5,15.4
		c9.3,7.4,18-4.5,21.6-11.4c0.1-0.4,0.9-2,1.5-1.9c0.3,0.1,0.4,2.5,0.5,2.7c1.1,5.6,5.2,12.8,12.1,8.9c4.4-2.3,7.8-8.7,10.3-12.8
		l0.4-0.7c0.9-1.5,1.7-3,2.6-4.5c1.4,8.9,5.1,17.3,14.2,18.5c2,0.3,4,0,5.9-0.8c2.6-1.1,4-3.3,5.4-5.3c2-2.9,3.3-6.1,4.6-9.3
		c0.1-0.4,0.1-1,0.8-1c2.6,4.6,3.8,9.9,9,12.5c4.2,1.9,8,0.5,11.4-2c3.1-2.6,4.2-5,6.3-8.2c0.5-0.7,0.8-1.3,1.1-1.9
		c0.1,3.8,0.7,7.5,1.9,11c1.8,5.4,5,8.9,9.8,9.5c0.7,0.1,1.5,0.4,2.2,0.3c1.1-0.1,2.2-0.3,3.3-0.5c0.8-0.3,1.6-0.4,2.3-0.8
		s1-1.4,1.8-1.5c0.8-1.6,1.9-2.9,3-4.2c1.6-2.2,2.7-4.6,3.5-7.5c0.4-1.2,0.8-2.5,1.8-3.4c0.3,0.7,0.3,1.4,0.4,2
		c0.5,4,1.4,7.8,3.5,10.9l1.6,1.8c1.1,1.2,2.2,2.3,3.5,3.1c2,1.1,4.2,1,6.4,0.8c1.6-0.1,3.5-0.7,4.6-1.8l0.5-0.4
		c0.7-0.4,1.1-1,1.4-1.6c1-1.9,1.6-4.1,2.6-5.9c0.7-1.2,1.4-2.6,1.5-4.1c0.1-0.8,0.4-1.6,0.7-2.3l0.3-0.8c0.8-4.6,1.4-8.6,1.8-12.7
		c0.1,0.1,0.4,0.1,0.4,0.1c2.6,0,5-0.1,6.9-0.7c0.4,0,0.8-0.1,1.6-0.5c0.1,0,0.1-0.1,0.2-0.1c-1.5,9.5-1.5,19.9,6.9,26.4
		c9.3,7.4,18-4.5,21.6-11.4c0.1-0.4,1-2,1.5-1.9c0.3,0.1,0.4,2.5,0.5,2.7c1.1,5.6,5.2,12.8,12.1,8.9c4.4-2.3,7.8-8.7,10.3-12.8
		l0.4-0.7c0.3-0.4,0.5-0.9,0.8-1.3c0.2,1.7,0.4,3.4,0.7,5.1c0.5,3,1.8,5.7,3,8.4c0.7,1.5,1.8,2.7,2.6,4.1c0.5,0.8,1.2,1.6,2.2,2
		l2.7,1.4c1.4,0.7,2.5,2.3,4.1,1.8c0.1,0,0.3,0.1,0.4,0.1c1.1,0.3,2.2-0.1,3.1-0.7l1.6-1c2-1.2,3.8-2.7,5.4-4.4
		c1.2-1,2.2-2.3,3.3-3.5c1.4-1.6,2.7-4.2,4.2-5.7c0-0.1,0.1-0.3,0.1-0.3l0.4-0.4c0.8-0.8,1.2-1.9,1.8-2.9c0.4-0.5,0.8-1.1,1.1-1.8
		c0.3-0.3,0.5-0.7,0.7-1.1l4.1-6.3c0.4-0.5,0.7-1.1,1-1.6c1-1.9,1.8-3.8,2.9-5.6c0.3-0.4,0.4-0.8,0.5-1.4c1.1-1.8,1.2-2.2,1.9-3.8
		c1-1.8,0.5-2.9,1.9-4.8c0.3-0.7,0.4-0.8,0.4-0.8C493.7,344.5,494,343.2,493.7,343z M456.8,340.1c0.7-2,0.7-4.1,1-6.3l1.2-7.6
		c0.4-2.9,1.5-5.6,1.8-8.4c0.1-2,1.1-3.8,1.4-5.9c0.3-1.1,0.5-2.2,0.7-3.4c0.1-1.2,0.5-2.6,1-3.8c0.7-2.3,1.4-4.5,2.2-6.8
		c0.4-1,1-1.9,1.6-2.7c0.7-0.8,1.6-1,2.3,0c0.5,0.7,1,1.4,0.8,2.3v1c0.3,1.1,0.1,2-0.3,3.1c-0.1,0.7,0,1.5-0.1,2.2
		c-0.1,1.4-0.5,2.6-0.4,3.8c0,0.3,0,0.7-0.1,1c-0.7,1.4-0.7,2.9-1.1,4.2c-1,2.7-1,5.4-2,8l-3.5,9.5c-1,2.5-2,4.9-3.1,7.4
		c-0.5,1.4-1.2,2.5-2,3.7c0,0.1-0.1,0.1-0.1,0.3c-0.1,0.1-0.4,0.4-0.7,0.3c-0.3,0-0.3-0.3-0.3-0.5L456.8,340.1L456.8,340.1z
		 M370.1,340.9c-0.1-1.2-0.4-2.7-0.1-4.1c0.3-1.2,0.7-1.6,1.4-1.2c0.4,0.3,0.7,0.7,1,1.2c1.2,3.1,1.8,9.5,1.9,13.8
		C372.4,348.7,370.8,344.2,370.1,340.9z M182.2,340.1c0.7-2,0.7-4.1,0.9-6.3l1.2-7.6c0.4-2.9,1.5-5.6,1.8-8.4c0.1-2,1.1-3.8,1.4-5.9
		c0.3-1.1,0.5-2.2,0.7-3.4s0.5-2.6,0.9-3.8c0.7-2.3,1.4-4.5,2.2-6.8c0.4-1,0.9-1.9,1.6-2.7c0.7-0.8,1.6-1,2.3,0
		c0.5,0.7,0.9,1.4,0.8,2.3v1c0.3,1.1,0.1,2-0.3,3.1c-0.1,0.7,0,1.5-0.1,2.2c-0.1,1.4-0.5,2.6-0.4,3.8c0,0.3,0,0.7-0.1,1
		c-0.7,1.4-0.7,2.9-1.1,4.2c-0.9,2.7-0.9,5.4-2,8l-3.5,9.5c-0.9,2.5-2,4.9-3.1,7.4c-0.5,1.4-1.2,2.5-2,3.7c0,0.1-0.1,0.1-0.1,0.3
		c-0.1,0.1-0.4,0.4-0.7,0.3c-0.3,0-0.3-0.3-0.3-0.5L182.2,340.1L182.2,340.1z M238.9,347c-0.1,2-0.4,4.2-0.8,6
		c-0.4,2.9-2.6,7.9-3.7,10.3c-0.5,1.2-1.1,2.3-1.8,3.4c-1.8,3.4-3.1,6.3-5.4,9.3c-2.7,3.5-7.2,4.2-8.4-1c-0.8-3.4,0.3-9.9,0.8-13.3
		c0.5-3.1,1.4-6.4,2.6-9.4c2-5.4,2.7-9.3,7.9-14.4c0.5-0.5,1.1-1,1.9-1C238.2,337.2,239.3,342,238.9,347z M421.2,347
		c-0.1,2-0.4,4.2-0.8,6c-0.4,2.9-2.6,7.9-3.7,10.3c-0.5,1.2-1.1,2.3-1.8,3.4c-1.8,3.4-3.1,6.3-5.4,9.3c-2.7,3.5-7.2,4.2-8.4-1
		c-0.8-3.4,0.3-9.9,0.8-13.3c0.5-3.1,1.4-6.4,2.6-9.4c2-5.4,2.7-9.3,7.9-14.4c0.5-0.5,1.1-1,1.9-1C420.5,337.2,421.6,342,421.2,347z
		"/>
</g>
</svg>
